<?xml version="1.0" standalone="no"?>
<!DOCTYPE svg PUBLIC "-//W3C//DTD SVG 1.1//EN" "http://www.w3.org/Graphics/SVG/1.1/DTD/svg11.dtd" >
<svg xmlns="http://www.w3.org/2000/svg">
<metadata>Generated by IcoMoon</metadata>
<defs>
<font id="icomoon" horiz-adv-x="1024">
<font-face units-per-em="1024" ascent="960" descent="-64" />
<missing-glyph horiz-adv-x="1024" />
<glyph unicode="&#x20;" horiz-adv-x="512" d="" />
<glyph unicode="&#xe900;" glyph-name="ficon-failed" d="M711.46 673.396c-6 0-11.5-2.1-15.8-5.5l-0.3 0.2-182-182-178.5 178.5-0.2-0.2c-4.7 5.5-11.6 8.9-19.4 8.9-14.1 0-25.5-11.4-25.5-25.5 0-8.8 4.5-16.6 11.3-21.2l-0.2-0.2 72.8-72.8-0.4-0.4 103.7-103.7-97.3-97.3 0.4-0.4-78.5-78.5c-7.1-4.5-11.8-12.5-11.8-21.5 0-14.1 11.4-25.5 25.5-25.5 6.3 0 12 2.3 16.4 6l0.5-0.5 181.2 181.2 179.6-179.6c4.6-4.2 10.6-6.8 17.3-6.8 14.1 0 25.5 11.4 25.5 25.5 0 7.3-3.1 13.9-8 18.5l-81.1 81.1 0.4 0.4-97.3 97.3 103.7 103.7-0.4 0.4 74.2 74.2c1.5 1.2 2.8 2.5 4 4l1.3 1.3-0.2 0.2c2.8 4.1 4.5 9.1 4.5 14.4 0.1 14.4-11.3 25.8-25.4 25.8zM513.26 960.096c-282.1 0-510.7-228.6-510.7-510.7 0-282 228.6-510.7 510.7-510.7 282 0 510.7 228.6 510.7 510.7s-228.6 510.7-510.7 510.7zM513.26-10.204c-253.8 0-459.6 205.8-459.6 459.6s205.8 459.6 459.6 459.6 459.6-205.8 459.6-459.6c0.1-253.8-205.7-459.6-459.6-459.6z" />
<glyph unicode="&#xe901;" glyph-name="ficon-pay" d="M511.66 895.496c-246.3 0-446-199.7-446-446s199.7-446 446-446 446 199.7 446 446-199.7 446-446 446zM511.66 64.896c-212.4 0-384.6 172.2-384.6 384.6s172.2 384.6 384.6 384.6c212.4 0 384.6-172.2 384.6-384.6 0.1-212.4-172.1-384.6-384.6-384.6zM653.86 444.796c20 0 36.2 16.2 36.2 36.2s-16.3 36.2-36.2 36.2h-47.6l57.2 119.7c7.4 13.5-0.6 33-17.7 43.5-17.2 10.5-37.2 8.1-44.6-5.5l-74.4-155.5c-0.4-0.7-0.8-1.5-1.1-2.3h-18.4c-0.4 1.4-1 2.7-1.7 4l-73.5 148.2c-7.3 13-27.1 15.3-44.2 5.2s-24.9-28.8-17.6-41.8l57.4-115.7h-58.1c-20 0-36.2-16.2-36.2-36.2s16.2-36.2 36.2-36.2h105.9v-49.2h-105.9c-20 0-36.2-16.2-36.2-36.2s16.2-36.2 36.2-36.2h105.9v-105.2c0-19.9 16.1-36 36-36h0.4c19.9 0 36 16.1 36 36v105.2h105.9c20 0 36.2 16.3 36.2 36.2 0 20-16.3 36.2-36.2 36.2h-105.9v49.2h106z" />
<glyph unicode="&#xe902;" glyph-name="ficon-elev" horiz-adv-x="1449" d="M1224.42 795.296c0 44.2-34.3 80.1-76.6 80.1h-847.4c-42.3 0-76.6-35.9-76.6-80.1v-587.4c0-44.2 34.3-80.1 76.6-80.1h321.3l102.4-107.1 102.4 107.1h321.3c42.3 0 76.6 35.9 76.6 80.1v95.7h-0.3c-0.9 13.9-11.7 25-25.2 25s-24.3-11.1-25.2-25h-0.3v-69c0-29.5-22.8-53.4-51.1-53.4h-321.3l-76.9-80.4-76.9 80.4h-321.3c-28.2 0-51 23.9-51 53.4v533.9c0 29.4 22.8 53.4 51 53.4h796.4c28.2 0 51.1-24 51.1-53.4v-253.6h0.5c-0.1-0.9-0.5-1.8-0.5-2.8 0-14.7 11.4-26.7 25.5-26.7s25.5 11.9 25.5 26.7c0 1-0.5 1.9-0.5 2.8h0.5v280.4zM976.12 436.296h-481.8c-12.8 0-23.2-11.3-23.2-25.3 0-13.9 10.4-25.2 23.2-25.2h481.8c12.8 0 23.2 11.3 23.2 25.2-0.1 14-10.5 25.3-23.2 25.3v0zM976.12 606.996h-481.8c-12.8 0-23.2-11.3-23.2-25.3 0-13.9 10.4-25.2 23.2-25.2h481.8c12.8 0 23.2 11.3 23.2 25.2-0.1 14.1-10.5 25.3-23.2 25.3v0z" />
<glyph unicode="&#xe903;" glyph-name="ficon-success" d="M828.16 763.796c-84.4 84.4-196.6 130.8-315.9 130.8s-231.5-46.5-315.9-130.8c-84.4-84.4-130.8-196.5-130.8-315.9 0-86.9 25-171.2 72.3-243.7 9.4-14.4 28.6-18.4 43-9.1 14.4 9.4 18.4 28.6 9.1 43-40.7 62.4-62.2 134.9-62.2 209.8 0 212 172.5 384.6 384.6 384.6s384.6-172.5 384.6-384.6-172.5-384.6-384.6-384.6c-70.2 0-138.9 19.1-198.7 55.2-14.7 8.9-33.8 4.2-42.7-10.5s-4.2-33.8 10.5-42.7c69.4-42 149.3-64.2 230.8-64.2 119.3 0 231.5 46.5 315.9 130.8 84.4 84.4 130.8 196.6 130.8 315.9s-46.4 231.7-130.8 316zM439.66 246.696c10.1 0 20.1 3.8 27.8 11.5l296.5 296.5c15.4 15.4 15.4 40.3 0 55.7s-40.3 15.4-55.7 0l-268.6-268.6-120.4 120.4c-15.4 15.4-40.3 15.4-55.7 0s-15.4-40.3 0-55.7l148.2-148.2c7.8-7.8 17.8-11.6 27.9-11.6z" />
<glyph unicode="&#xe904;" glyph-name="ficon-time" d="M507.16 108.496c-227 0-411 184-411 411s184 411 411 411c227 0 411-184 411-411s-184-411-411-411v0zM507.16 883.896c-201.3 0-364.4-163.2-364.4-364.4 0-201.3 163.1-364.4 364.4-364.4s364.4 163.2 364.4 364.4c0 201.2-163.1 364.4-364.4 364.4v0zM313.36 390.796c-5.7 12.1-0.5 26.6 11.7 32.3l179.6 60.1v253.4c0 13.4 10.8 24.3 24.3 24.3 13.4 0 24.3-10.8 24.3-24.3v-266.8c0-1-0.4-1.8-0.6-2.8 0.5-9.6-4.6-19-13.9-23.3l-193.1-64.6c-12.1-5.6-26.6-0.4-32.3 11.7v0z" />
<glyph unicode="&#xe905;" glyph-name="computer" d="M907.96 856.096h-792c-36 0-66-30-66-66v-528c0-36 30-66 66-66h330v-102h-168c-18 0-36-12-36-36v-24h528v24c0 18-12 36-36 36h-156v102h330c36 0 66 30 66 66v528c0 36-30 66-66 66v0 0zM475.96 244.096c0 18 12 36 36 36 18 0 36-12 36-36 0-18-12-36-36-36-18 6-36 18-36 36v0zM97.96 322.096c0 24 0 450 0 456 0 18 6 30 30 30s744 0 768 0 30-12 30-36c0-66 0-402 0-450 0-18-6-24-24-24s-768 0-780 0-24 0-24 24z" />
<glyph unicode="&#xe906;" glyph-name="call" d="M512.96 910.996c-249.3 0-451.3-202.1-451.3-451.3 0-249.3 202.1-451.3 451.3-451.3s451.3 202.1 451.3 451.3c0 249.2-202 451.3-451.3 451.3zM512.96 53.496c-224.3 0-406.2 181.9-406.2 406.2s181.8 406.2 406.2 406.2c224.3 0 406.2-181.8 406.2-406.2s-181.9-406.2-406.2-406.2zM553.66 613.896c-187.7 99-201.7 47-198.6-155.9 3-203 18.4-252.5 203.2-148.5 92.9 52.3 159.2 98.9 157.9 150-1.5 50.4-69.2 105.3-162.5 154.4z" />
<glyph unicode="&#xe907;" glyph-name="call2" horiz-adv-x="1020" d="M430.95 716.849h75.12v-86.981h-75.12v86.981zM430.95 495.839h75.12v-86.981h-75.12v86.981zM430.95 274.829h75.12v-86.981h-75.12v86.981z" />
<glyph unicode="&#xe908;" glyph-name="phone" d="M702.66 899.196h-381.4c-57.5 0-104-46.6-104-104v-693.5c0-57.4 46.6-104 104-104h381.4c57.5 0 104 46.6 104 104v693.5c0.1 57.4-46.5 104-104 104zM477.36 864.496h69.3c9.6 0 17.3-7.8 17.3-17.3 0-9.6-7.8-17.3-17.3-17.3h-69.3c-9.6 0-17.3 7.8-17.3 17.3-0.1 9.5 7.7 17.3 17.3 17.3zM511.96 39.996c-24.5 0-44.3 19.8-44.3 44.3s19.8 44.3 44.3 44.3c24.5 0 44.3-19.8 44.3-44.3 0.1-24.4-19.8-44.3-44.3-44.3zM737.36 188.396c0-9.6-7.8-17.3-17.3-17.3h-416.1c-9.6 0-17.3 7.8-17.3 17.3v589.4c0 9.6 7.8 17.3 17.3 17.3h416.1c9.6 0 17.3-7.8 17.3-17.3v-589.4z" />
<glyph unicode="&#xe909;" glyph-name="unvisit" horiz-adv-x="1390" d="M687.024 221.199c-5.16-1.204-10.321-2.408-15.481-3.44-13.589-2.58-22.534-15.653-19.954-29.242 1.204-6.709 4.988-12.213 10.149-15.825 5.332-3.784 12.041-5.504 18.922-4.128 6.193 1.204 12.385 2.58 18.578 3.956 13.417 3.268 21.502 16.857 18.233 30.274-3.44 13.589-17.029 21.846-30.446 18.406v0 0zM872.112 556.627c1.72-5.332 5.16-9.633 9.289-12.557 6.193-4.472 14.449-5.848 22.362-3.268 13.073 4.3 20.298 18.578 15.825 31.651-1.892 6.020-4.128 12.041-6.537 17.889-5.16 12.901-19.61 19.094-32.511 13.933s-19.094-19.61-13.933-32.511c1.892-5.16 3.784-10.149 5.504-15.137v0 0zM768.387 256.978c-4.472-2.924-8.945-5.676-13.589-8.429-12.041-6.881-15.997-22.19-9.117-34.231 1.892-3.268 4.3-5.848 7.225-7.913 7.741-5.504 18.233-6.193 27.006-1.204 5.504 3.096 10.837 6.537 16.169 9.977 11.525 7.569 14.621 23.050 7.053 34.575-7.741 11.697-23.222 14.793-34.747 7.225v0 0zM935.069 486.789c-0.516 13.761-12.213 24.598-25.974 24.082s-24.598-12.213-24.082-25.974c0.172-5.332 0.344-10.665 0.172-15.825-0.172-8.601 3.956-16.341 10.665-20.986 3.956-2.752 8.601-4.472 13.761-4.472 13.761-0.344 25.286 10.665 25.63 24.426 0.172 6.020 0.172 12.385-0.172 18.75v0 0zM867.983 322.86c-11.009 8.257-26.662 6.020-35.091-4.988-3.096-4.3-6.537-8.429-9.977-12.385-8.945-10.493-7.741-26.318 2.752-35.263 0.516-0.516 1.204-1.032 1.892-1.376 10.493-7.397 24.942-5.676 33.371 4.3 4.128 4.816 8.085 9.805 11.869 14.793 8.429 10.837 6.193 26.49-4.816 34.919v0 0zM904.794 413.167c-13.245 4.128-27.178-3.268-31.307-16.341-1.548-4.988-3.268-10.149-5.16-15.137-4.128-10.837-0.172-22.878 8.945-29.414 1.72-1.204 3.44-2.236 5.504-2.924 12.901-4.988 27.35 1.548 32.339 14.449 2.236 5.848 4.3 11.869 6.193 17.889 3.956 13.417-3.44 27.35-16.513 31.479v0 0zM577.967 217.759c-22.362 3.956-43.864 10.837-64.161 20.47-0.172 0.172-0.516 0.344-0.688 0.344-4.816 2.236-9.633 4.644-14.277 7.225 0 0 0 0 0 0-8.429 4.644-16.857 9.805-24.942 15.481-117.658 82.911-146.040 245.98-63.129 363.81 18.061 25.63 39.907 46.96 64.161 63.817 0.344 0.172 0.516 0.344 0.86 0.688 85.663 59.001 202.117 62.957 293.112 2.408l-19.61-28.21c-5.504-7.913-2.064-13.589 7.397-12.729l84.975 7.569c9.461 0.86 15.137 9.117 12.729 18.233l-22.878 82.223c-2.58 9.289-9.117 10.321-14.449 2.408l-19.61-28.554c-66.741 44.896-146.9 61.925-226.371 48.164-8.085-1.376-15.825-3.096-23.738-4.988 0 0-0.172 0-0.172 0-0.344 0-0.688-0.172-0.86-0.172-68.634-17.545-128.323-57.625-170.982-114.561-0.344-0.344-0.688-0.86-1.032-1.376-1.376-1.892-2.752-3.784-4.128-5.848-2.236-3.268-4.472-6.537-6.537-9.805-0.344-0.344-0.516-0.86-0.688-1.204-35.263-54.528-52.292-117.658-49.368-181.991 0-0.172 0-0.344 0-0.688 0.344-6.193 0.86-12.557 1.376-18.922 0-0.344 0.172-0.86 0.172-1.204 0.688-6.365 1.548-12.557 2.752-18.922 11.181-64.333 41.455-122.302 87.039-167.37 0.172-0.172 0.172-0.172 0.344-0.344 0 0 0 0 0.172-0.172 12.213-12.041 25.458-23.222 39.907-33.371 37.499-26.49 79.299-43.864 124.022-51.948 13.589-2.408 26.662 6.537 29.070 20.126 2.064 13.933-6.881 26.834-20.47 29.414v0 0zM608.758 676.693c-11.181 0-20.298-9.117-20.298-20.298v-201.601l184.399-95.296c2.924-1.548 6.193-2.236 9.289-2.236 7.397 0 14.449 3.956 18.061 11.009 5.16 9.977 1.204 22.19-8.601 27.35l-162.553 83.943v177.003c0 11.181-9.117 20.126-20.298 20.126v0 0z" />
<glyph unicode="&#xe90a;" glyph-name="smile" horiz-adv-x="1025" d="M512.96 823.296c212.5 0 385.4-172.9 385.4-385.4s-172.9-385.4-385.4-385.4-385.4 172.9-385.4 385.4 172.9 385.4 385.4 385.4zM512.96 866.896c-237 0-429.1-192.1-429.1-429.1s192.1-429.1 429.1-429.1 429.1 192.1 429.1 429.1-192.1 429.1-429.1 429.1v0zM329.76 519.996c0-31.1 25.2-56.4 56.4-56.4s56.4 25.2 56.4 56.4v0c0 31.1-25.2 56.4-56.4 56.4s-56.4-25.3-56.4-56.4zM583.46 519.996c0-31.1 25.2-56.4 56.4-56.4s56.4 25.2 56.4 56.4v0c0 31.1-25.2 56.4-56.4 56.4s-56.4-25.3-56.4-56.4zM664.76 337.996c4 0 8-1.1 11.6-3.4 10.2-6.4 13.3-19.9 6.8-30.1-37.2-59.2-101.2-94.5-171-94.5-68.5 0-131.8 34.3-169.3 91.8-6.6 10.1-3.7 23.6 6.4 30.2s23.6 3.7 30.2-6.4c29.4-45.1 79-72 132.7-72 54.7 0 104.9 27.7 134.1 74.1 4.2 6.7 11.3 10.3 18.5 10.3z" />
<glyph unicode="&#xe90b;" glyph-name="doc-scheduling" d="M883.96 810.996h-121.2v55.9c0 15.5-12.5 28-28 28s-28-12.5-28-28v-55.9h-167.8v55.9c0 15.5-12.5 28-28 28-15.4 0-28-12.5-28-28v-55.9h-167.8v55.9c0 15.5-12.5 28-28 28-15.4 0-28-12.5-28-28v-55.9h-120.8c-41.2 0-74.6-33.4-74.6-74.5v-661.8c0-41.2 33.4-74.6 74.6-74.6h745.6c41.2 0 74.6 33.4 74.6 74.6v661.8c0 41.1-33.4 74.5-74.6 74.5zM902.66 74.696c0-10.3-8.4-18.7-18.6-18.7h-745.7c-10.3 0-18.6 8.4-18.6 18.7v661.8c0 10.3 8.4 18.6 18.6 18.6h121.2v-55.9c0-15.5 12.5-28 28-28s28 12.5 28 28v55.9h167.8v-55.9c0-15.5 12.5-28 28-28 15.4 0 28 12.5 28 28v55.9h167.8v-55.9c0-15.5 12.5-28 28-28s28 12.5 28 28v55.9h121.2c10.3 0 18.6-8.4 18.6-18.6l-0.3-661.8zM259.56 475.396h111.8v83.9h-111.8v-83.9zM259.56 335.596h111.8v83.9h-111.8v-83.9zM259.56 195.796h111.8v83.9h-111.8v-83.9zM455.26 195.796h111.8v83.9h-111.8v-83.9zM455.26 335.596h111.8v83.9h-111.8v-83.9zM455.26 475.396h111.8v83.9h-111.8v-83.9zM650.96 195.796h111.8v83.9h-111.8v-83.9zM650.96 335.596h111.8v83.9h-111.8v-83.9zM650.96 475.396h111.8v83.9h-111.8v-83.9z" />
<glyph unicode="&#xe90c;" glyph-name="doc-clock" d="M907.64 426.308c0 217.7-177.2 394.1-395.6 394.1s-395.6-176.5-395.6-394.1c0-119.7 53.7-226.7 138.2-299-2.5-2.2-4.9-4.6-6.8-7.4l-47.1-72.1c-9.7-14.9-7-32.5 6.1-39.2s31.7 0 41.4 14.9l47.1 72.1c0.2 0.3 0.2 0.6 0.4 0.9 62.2-40.5 136.4-64.3 216.2-64.3s154.1 23.8 216.2 64.3c0.2-0.3 0.2-0.6 0.4-0.9l47.1-72.1c9.7-14.9 28.3-21.6 41.4-14.9s15.9 24.3 6.1 39.2l-47.1 72.1c-1.9 2.9-4.3 5.2-6.8 7.4 84.7 72.3 138.4 179.3 138.4 299zM512.040 84.708c-189.3 0-342.9 152.9-342.9 341.6s153.5 341.6 342.9 341.6 342.9-152.9 342.9-341.6-153.6-341.6-342.9-341.6zM627.24 549.608l-115.2-115.2-82.3 82.3c-9.1 9.1-23.8 9.1-32.9 0s-9.1-23.8 0-32.9l82.3-82.3-16.5-16.4c-9.1-9.1-9.1-23.8 0-32.9s23.8-9.1 32.9 0l16.5 16.4 16.5-16.5c9.1-9.1 23.8-9.1 32.9 0s9.1 23.8 0 32.9l-16.5 16.5 115.2 115.2c9.1 9.1 9.1 23.8 0 32.9s-23.9 9.1-32.9 0zM139.64 750.608c0 64.3 52.1 116.4 116.4 116.4 23.4 0 45-7 63.3-18.9 16.2 7.4 32.7 14.1 49.7 19.5-29.3 28.3-69 45.9-113 45.9-90 0-162.9-72.9-162.9-162.9 0-30.1 8.7-57.9 22.9-82.1 9.4 15.2 19.5 29.9 30.5 43.9-4.2 12.1-6.9 24.7-6.9 38.2zM768.040 913.508c-43.9 0-83.7-17.6-113-45.9 17.1-5.5 33.6-12.2 49.7-19.5 18.2 11.9 39.9 18.9 63.3 18.9 64.3 0 116.4-52.1 116.4-116.4 0-13.5-2.7-26.1-6.9-38.1 11-14 21.1-28.7 30.5-43.9 14.2 24.2 22.9 52 22.9 82.1 0 89.9-73 162.8-162.9 162.8z" />
<glyph unicode="&#xe90d;" glyph-name="doc-depmenege" d="M413.56 687.696h196.9c32.6 0 59.1 26.4 59.1 59v78.7c0 32.6-26.4 59-59.1 59h-196.9c-32.6 0-59.1-26.4-59.1-59v-78.7c0.1-32.6 26.5-59 59.1-59zM413.56 805.696c0 10.9 8.8 19.7 19.7 19.7h157.5c10.9 0 19.7-8.8 19.7-19.7v-39.4c0-10.9-8.8-19.7-19.7-19.7h-157.5c-10.9 0-19.7 8.8-19.7 19.7v39.4zM821.96 804.696h-113.3v-59h113.3c3.5 0 4.9-2 5.1-2.3v-670.2c-0.1-0.4-1.6-2.3-5.1-2.3h-603.2c-10.9 0-19.7 8.8-19.7 19.7l0.1 635.7c0 10.9 8.8 19.6 19.7 19.6l96.7-0.1v59l-118.6-0.7c-32.5-0.1-58.8-26.5-58.8-59l-0.1-671.9c0-33.9 28.7-61.3 64.1-61.3h619.8c35.4 0 64.1 27.5 64.1 61.3v670.2c0 33.9-28.7 61.3-64.1 61.3zM295.46 379.896c0-16.3 13.2-29.5 29.5-29.5h157.5v-157.4c0-16.3 13.2-29.5 29.5-29.5s29.5 13.2 29.5 29.5v157.4h157.5c16.3 0 29.5 13.2 29.5 29.5s-13.2 29.5-29.5 29.5h-157.5v157.4c0 16.3-13.2 29.5-29.5 29.5s-29.5-13.2-29.5-29.5v-157.4h-157.5c-16.3 0-29.5-13.2-29.5-29.5z" />
<glyph unicode="&#xe90e;" glyph-name="doc-fourk" horiz-adv-x="1025" d="M319.64 384.008h-191.3c-71.6 0-128.4-57.5-128.4-128.4v-191.2c0.1-71.6 57.5-128.4 128.4-128.4h191.3c71.6 0 128.4 57.5 128.4 128.4v191.2c0 71.7-57.5 128.4-128.4 128.4zM384.040 64.008c0-35.3-28.4-64-64-64h-192c-35.3 0-64 28.4-64 64v192c0 35.3 28.4 64 64 64h192c35.3 0 64-28.4 64-64v-192zM895.64 960.008h-191.2c-71.6 0-128.4-57.5-128.4-128.4v-191.2c0-71.6 57.5-128.4 128.3-128.4h191.3c71.6 0 128.4 57.5 128.4 128.4v191.2c0 71.7-57.5 128.4-128.4 128.4zM960.040 640.008c0-35.3-28.4-64-64-64h-192c-35.3 0-64 28.4-64 64v192c0 35.3 28.4 64 64 64h192c35.3 0 64-28.4 64-64v-192zM319.64 960.008h-191.3c-71.6 0-128.3-57.5-128.3-128.4v-191.2c0-71.6 57.5-128.4 128.3-128.4h191.3c71.6 0 128.4 57.5 128.4 128.4v191.2c0 71.7-57.5 128.4-128.4 128.4zM384.040 640.008c0-35.3-28.4-64-64-64h-192c-35.3 0-64 28.4-64 64v192c0 35.3 28.4 64 64 64h192c35.3 0 64-28.4 64-64v-192zM895.64 384.008h-191.2c-71.6 0-128.4-57.5-128.4-128.4v-191.2c0-71.6 57.5-128.4 128.4-128.4h191.2c71.6 0 128.4 57.5 128.4 128.4v191.2c0 71.7-57.5 128.4-128.4 128.4zM960.040 64.008c0-35.3-28.4-64-64-64h-192c-35.3 0-64 28.4-64 64v192c0 35.3 28.4 64 64 64h192c35.3 0 64-28.4 64-64v-192z" />
<glyph unicode="&#xe90f;" glyph-name="doc-time" d="M512.040 960.008c-282.8 0-512-229.2-512-512s229.2-512 512-512c282.8 0 512 229.2 512 512s-229.2 512-512 512v0zM512.040-0.892c-247 0-448 202-448 449s201 448 448 448 448-201 448-448-201-449-448-449v0zM544.040 461.008v307c0 17.7-14.3 32-32 32s-32-14.3-32-32v-320c0-9 3.8-17.2 9.8-23 0.6-0.6 1-1.3 1.6-1.9l158.4-158.4c12.5-12.5 32.8-12.5 45.2 0 12.5 12.5 12.5 32.8 0 45.2l-151 151.1z" />
<glyph unicode="&#xe910;" glyph-name="doc-doc" horiz-adv-x="1111" d="M660.7 549.496l-8.2 23c-3.8 10.7-14 17.8-25.3 17.8-11.6 0-21.9-7.4-25.6-18.5l-5.3-15.8h-104.2l-5.3 15.8c-3.7 11-14 18.5-25.6 18.5-11.2 0-21-6.7-25.1-17.2l-9-23.1-107 50.7 2 16.5c3.7 29.7 15 65.7 35.9 77.7l0.4 0.3c28.6 15.7 71.9 39.5 105.8 96.9l20.5 34.6 19.7-35.1c21.2-38 120.7-71.5 180.3-91.4 41.8-14.1 62.4-21.2 73-30.2 6.9-5.8 11.9-14.5 16-27.1l0.4-1.2c1.8-7.3 3.3-15.8 4.1-25.3l1.5-16.8-119-50.1zM523.2 602.196h42c13.2 21 36.3 34.2 61.9 34.2 22.4 0 43.2-10.3 56.7-27.1l45.5 19.3c-0.1 0.3-0.1 0.7-0.3 0.9-1.1 3.2-1.8 4.9-2.2 5.7-7.5 4.5-34.8 13.7-57.1 21.2-61 20.5-140.3 47.1-183.4 85.6-36.3-48.8-77.7-71.9-104.4-86.7-2.6-3-7.5-12.5-11.1-27.7l35-16.6c13.6 15.8 33.5 25.3 55.4 25.3 25.7 0.1 48.8-13.1 62-34.1zM552.2 344.896c-95.8 0-169.6 52.9-213.5 152.9l-0.3 0.8c-11.6 29.3-17.7 59.4-17.8 89.6l-0.3 36.8 112.6-53.3 1.8-12.3c2-13.1 13.3-23 26.7-23 13.2 0 24.3 9.4 26.5 22.3l3.3 19.3h106.2l3.3-19.3c2.2-12.9 13.3-22.3 26.5-22.3s24.3 9.4 26.5 22.3l2.1 12.4 123.6 52.5-0.5-35.5c-0.7-37.2-7.5-75.7-17.9-100.7l-0.4-1.1-1.1-2.4c-0.8-1.6-1.6-3.3-2.4-4.9v-0.1l-1.3-2.6c-0.3-0.4-0.5-0.9-0.7-1.3l-1.6-3c-45-83.1-114.4-127.1-201.3-127.1zM381.2 516.096c36.6-82.9 94.1-125 171-125 70.2 0 124.3 35.1 161 104.1l1.2 5 2.2 1.8c0.3 0.5 0.5 1.2 0.8 1.7l0.9 2c4.8 11.7 8.8 28.5 11.3 46.7l-34-14.5c-10.4-28.4-37.5-47.8-68.6-47.8-28.9 0-54.1 16.6-66 41.6h-33.8c-11.9-24.9-37.1-41.6-66-41.6-31.5 0-59.2 20.6-69.1 49.6l-21.1 10c2.4-11.2 5.7-22.5 10.2-33.6zM370.1 467.596l-52.5 64.7c-2.1 2.5-51.2 64.1-51.2 161.3 0 76.8 25.7 140.5 76.7 189.6 26.1 25.2 68.4 28.4 96.3 30.4 5.3 0.4 12.1 0.9 16 1.5 33.3 28.4 84.5 45.1 138 45.1 69.8 0 131.4-27.6 173.7-77.5 80.1-94.6 75.2-182.5 73.1-220.1-0.1-2.9-0.3-5.5-0.4-7.8-0.9-24.1-16.2-53.7-31-82.2-8-15.6-16.5-31.7-19-40.9-5.1-19.1-18.6-21.1-24.1-21.1v0c-2.1 0-20.2 0.7-24 22.2-1.1 5.9-1.6 15.2-2.5 28.1-0.9 15.6-2.2 35-4.6 52.3-3 21.6-6.5 29.3-7.7 31.3-7.4 4.5-34.8 13.7-57.1 21.2-61 20.5-140.3 47.1-183.4 85.6-36.7-49.4-78-72.2-106.8-87.9-9-4.9-19.9-11-23.2-14.3-3.3-11.1-4.9-38 0.1-83.5 1.1-9.2 1.8-15.3 1.8-15.4l11.8-82.6zM484.7 835.896l19.7-35.1c21.2-38.1 120.7-71.5 180.3-91.4 41.8-14.1 62.4-21.2 73-30.2 12.7-10.8 19.1-32.2 23-60.3 7 14.6 12.9 29 13.3 37.7 0.1 2.5 0.3 5.4 0.4 8.6 2 34.8 5.9 107.2-62.3 187.6-45 53.2-106.1 61.1-138.4 61.1-43.5 0-85.8-13.9-110.3-36-9-8.2-20.8-9-40.4-10.4-21.4-1.6-53.6-4-67.7-17.6-41.4-40-62.5-92.6-62.5-156.4 0-9 0.5-17.7 1.5-25.9l0.3 0.8 0.4 0.9c7.4 15 23 23.6 42.6 34.4 30.7 16.9 73 40.1 106.9 97.5l20.2 34.7zM995.4-63.904h-881.7c-42 0-76 34-76 76v19.7c0 96.6 37.5 179.5 111.5 246.2 71.1 64.3 161.6 99.9 225.1 118.4l24.9 7.3 4.2-25.6c11.3-68.2 70.3-151.9 136.8-163.2l16.4-2.8 9.9 2.5 1.7 0.3c66.5 11.2 125.5 95 136.8 163.2l4.2 25.6 24.9-7.3c63.5-18.5 154.1-54 225.4-118.2 74-66.9 111.5-149.8 111.5-246.4v-19.7c0.2-41.9-33.8-76-75.6-76zM470.8-17.704h524.6c16.5 0 29.8 13.3 29.8 29.8v19.7c0 188.6-165.9 275.5-280.1 313-10.2-35.6-29.2-71.7-53.8-101.7-28.6-34.8-62.7-59.1-97.4-69.7-4.8-57.5-21.6-105.6-49.2-139.7-20-24.5-45-41.9-73.9-51.4zM200.2 260.896c-65.2-50.9-116.4-124.4-116.4-229.2v-19.7c0-16.5 13.3-29.8 29.8-29.8h241.6c-51.6 17.4-76.4 56.7-84.7 85.2-23.2 7.1-44.2 20.7-60.2 39.3-20.1 23.4-31 53-31 83.8 0 26 7.7 50.2 20.9 70.4zM359.3 72.396c0.1-0.1 0.3-0.3 0.4-0.4 11.5-11.3 29.6-17.2 53.6-17.2 35.8 0 61.4 15 78.3 46.2 12.4 22.7 17.9 50.1 20.5 73.4-28.1 9.2-55.6 27.3-80.1 52.7 3.4-11.6 5.3-23.8 5.3-36.4 0-30.6-11-60.3-30.9-83.7-13-15-29.1-26.9-47.1-34.6zM308.3 273.296c-45.7 0-82.7-37.1-82.7-82.7 0-40.6 29.2-75 69.3-81.6l13.7-2.2 13.6 2.2c39.9 6.7 68.9 41 68.9 81.4-0.1 45.8-37.3 82.9-82.8 82.9zM308.3 319.496c28.1 0 54.1-9 75.2-24.3-8.3 16.1-14.9 32.9-19.7 49.5-20.7-6.9-43-15.2-65.8-25.6 3.3 0.2 6.7 0.4 10.3 0.4z" />
<glyph unicode="&#xe911;" glyph-name="checkBox" horiz-adv-x="1490" d="M1489.347 866.431l-930.562-930.562-558.39 558.39 93.043 93.043 465.347-465.215 837.519 837.519 93.043-93.175z" />
<glyph unicode="&#xe912;" glyph-name="failed02" d="M511.999 960c-282.77 0-511.999-229.229-511.999-511.999s229.229-511.999 511.999-511.999 511.999 229.229 511.999 511.999-229.23 511.999-511.999 511.999zM774.398 272.492c23.993-23.994 23.993-62.896 0-86.89-11.997-11.996-27.721-17.996-43.445-17.996s-31.448 5.998-43.445 17.996l-175.509 175.509-178.779-178.78c-11.997-11.996-27.721-17.994-43.445-17.994s-31.448 5.998-43.445 17.994c-23.993 23.994-23.994 62.896 0 86.89l178.779 178.78-175.511 175.509c-23.993 23.994-23.994 62.896 0 86.89s62.896 23.994 86.89 0l175.509-175.509 178.779 178.779c23.994 23.994 62.896 23.994 86.89 0s23.994-62.896 0-86.89l-178.778-178.779 175.51-175.509z" />
<glyph unicode="&#xe913;" glyph-name="success02" d="M511.702 0.553c-247.264 0-447.709 200.445-447.709 447.709s200.445 447.708 447.709 447.708 447.709-200.445 447.709-447.709-200.445-447.708-447.709-447.708zM775.576 600.141h-0.005c-20.874 20.874-54.716 20.874-75.59 0l-243.218-243.235-132.98 132.998c-20.958 20.953-54.934 20.953-75.886 0v-0.023c-20.958-20.953-20.958-54.917 0-75.876l156.558-156.57c2.608-6.19 6.301-12.032 11.344-17.069v-0.023c11.193-11.193 26.056-15.899 40.708-15.088 14.707-0.811 29.627 3.912 40.865 15.149v0.016c5.188 5.188 9.049 11.187 11.674 17.578l266.531 266.545c20.873 20.877 20.873 54.724-0.001 75.598z" />
<glyph unicode="&#xe914;" glyph-name="refund" horiz-adv-x="1023" d="M511.683 891.732c244.052 0 443.732-199.68 443.732-443.732s-199.68-443.732-443.732-443.732-443.732 199.68-443.732 443.732 197.973 443.732 443.732 443.732zM511.683 959.999c-283.305 0-511.998-228.691-511.998-511.998s228.691-511.998 511.998-511.998 511.999 228.69 511.999 511.997-230.401 511.999-511.999 511.999v0zM499.737 241.495h276.479c17.067 0 25.6-6.827 27.306-22.187-1.707-15.36-10.24-23.893-27.306-25.6h-269.652c-63.147 3.413-114.346 20.48-157.013 54.613-3.413-3.413-5.121-5.121-6.827-5.121-23.893-20.48-47.786-35.84-68.266-46.080-13.653-5.121-23.893 0-29.014 11.947-6.827 15.36-3.413 25.6 8.534 32.427 46.080 17.067 69.973 40.96 69.973 73.387v122.881c0 13.653-6.827 20.48-20.48 22.187h-46.080c-13.653 0-20.48 6.827-20.48 22.187s6.827 23.893 20.48 25.6h73.387c23.893-1.706 37.546-13.653 39.254-39.254v-139.947c3.412-56.32 46.079-85.334 129.706-87.041zM310.297 680.107c23.893-23.893 49.493-52.907 73.387-87.040 6.827-15.36 6.827-27.306-5.121-35.84-13.653-6.827-25.6-1.707-34.133 11.947-11.947 13.653-32.427 37.546-61.439 69.973-3.413 5.121-5.121 8.534-6.827 11.947-11.947 10.24-13.653 20.48-1.707 32.427 10.24 5.118 22.187 5.118 35.84-3.414zM702.828 702.293c30.72 1.706 44.373-11.947 42.667-39.254v-153.6c-1.707-22.187-13.653-35.84-39.254-35.84h-230.399v-160.426c-1.707-5.121-1.707-6.827 0-6.827s3.413 0 6.827 1.707c29.014 15.36 51.2 29.014 68.266 42.667 13.653 10.24 25.6 10.24 35.84 0 6.827-11.947 5.121-23.893-6.827-35.84-29.014-22.187-61.439-42.667-97.28-59.733-37.546-10.24-54.613 0-54.613 34.133v372.053c-3.413 29.014 11.947 42.667 42.667 40.96h232.105zM491.203 659.627c-11.947-1.707-18.774-8.534-18.774-20.48v-25.6h228.692v25.6c0 13.653-5.121 20.48-15.36 20.48h-194.558zM472.43 519.681h211.627c10.24-1.707 15.36 3.413 15.36 13.653v35.84h-226.987v-49.493zM564.59 456.534c20.48-13.653 47.786-34.133 80.213-59.733 29.014 20.48 51.2 40.96 68.266 59.733 10.24 10.24 22.187 10.24 34.133 0 8.534-10.24 8.534-22.187 0-34.133-15.36-17.067-37.546-35.84-66.56-54.613 17.067-17.067 39.254-40.96 68.266-69.973 10.24-15.36 10.24-29.014 0-39.254-13.653-8.534-25.6-6.827-35.84 6.827-49.493 54.613-107.52 105.814-177.493 155.307-10.24 6.827-11.947 15.36-1.707 29.014 6.829 10.239 18.775 11.945 30.722 6.826z" />
<glyph unicode="&#xe915;" glyph-name="reduce" d="M512 960c-282.752 0-512-229.248-512-512s229.248-512 512-512 512 229.248 512 512-229.248 512-512 512zM768 384h-512v128h512v-128z" />
<glyph unicode="&#xe916;" glyph-name="add" d="M512 960c-282.752 0-512-229.248-512-512s229.248-512 512-512 512 229.248 512 512-229.248 512-512 512zM768 384h-192v-192h-128v192h-192v128h192v192h128v-192h192v-128z" />
<glyph unicode="&#xe917;" glyph-name="personal" d="M516.516 950.945c-280.262 0-507.484-227.199-507.484-507.461s227.222-507.484 507.484-507.484 507.484 227.222 507.484 507.484c0 280.262-227.222 507.461-507.484 507.461v0zM516.516 903.37c253.979 0 459.886-205.906 459.886-459.886 0-113.261-41.005-216.88-108.88-297.016-57.511 137.173-192.968 233.567-351.005 233.567-158.082 0-293.313-96.552-350.802-233.793-68.011 80.159-109.106 183.868-109.106 297.242 0 253.979 205.906 459.886 459.908 459.886v0zM202.226 107.901c45.115 130.422 168.717 224.557 314.29 224.557 145.595 0 269.243-94.091 314.358-224.49-82.236-77.133-192.72-124.393-314.358-124.393-121.593 0-232.077 47.26-314.29 124.325v0zM516.516 409.501c105.087 0 190.304 85.217 190.304 190.326s-85.194 190.304-190.304 190.304-190.304-85.194-190.304-190.304 85.217-190.326 190.304-190.326v0zM516.516 742.555c78.668 0 142.728-64.037 142.728-142.728s-64.059-142.728-142.728-142.728c-78.691 0-142.728 64.037-142.728 142.728s64.037 142.728 142.728 142.728v0z" />
<glyph unicode="&#xe918;" glyph-name="data" horiz-adv-x="1030" d="M991.991-63.998h-959.991c-17.671 0-31.999 14.343-31.999 31.999 0 17.686 14.328 31.999 31.999 31.999h959.991c17.671 0 31.999-14.312 31.999-31.999 0.001-17.658-14.327-31.999-31.999-31.999zM310.090 174.913c0-61.249-49.656-110.905-110.906-110.905h-82.187c-61.249 0-110.906 49.656-110.906 110.905v322.185c0 61.249 49.656 110.906 110.906 110.906h82.187c61.249 0 110.906-49.656 110.906-110.906v-322.185zM246.092 497.098c0 25.906-21 46.906-46.906 46.906h-82.187c-25.906 0-46.906-21-46.906-46.906v-322.185c0-25.906 21-46.905 46.906-46.905h82.187c25.906 0 46.906 20.999 46.906 46.905v322.185zM678.088 174.913c0-61.249-49.657-110.905-110.907-110.905h-82.186c-61.249 0-110.906 49.656-110.906 110.905v498.184c0 61.249 49.656 110.906 110.906 110.906h82.186c61.25 0 110.907-49.656 110.907-110.906v-498.184zM614.087 673.097c0 25.906-21 46.906-46.906 46.906h-82.186c-25.906 0-46.906-21-46.906-46.906v-498.183c0-25.906 21-46.905 46.906-46.905h82.186c25.906 0 46.906 20.999 46.906 46.905v498.183zM835.039 720.003c-8.844 0-12.953 7.157-12.953 16v96.609c0 31.391 25.765 31.391 36.248 31.391h37.657c8.827 0 15.999-7.157 15.999-16s-7.17-16-15.999-16h-37.657c-5.374 0-8.499-0.25-10.296-0.562l1.468-95.437c0.001-8.846-5.64-16.001-14.468-16.001zM831.993 685.128c-4.173 0-8.328 1.765-11.361 4.641-2.889 3.030-4.64 7.204-4.64 11.36s1.75 8.312 4.64 11.361c6.079 6.078 16.797 5.922 22.718 0 2.875-3.048 4.641-7.047 4.641-11.361 0-4.156-1.766-8.328-4.641-11.36-3.045-2.876-7.201-4.641-11.357-4.641zM1030.084 174.913c0-61.249-49.656-110.905-110.905-110.905h-82.187c-61.25 0-110.906 49.656-110.906 110.905v674.181c0.001 61.249 49.656 110.906 110.906 110.906h82.187c61.249 0 110.905-49.656 110.905-110.906v-674.181zM966.084 849.094c0 25.906-20.999 46.906-46.905 46.906h-82.187c-25.906 0-46.905-21-46.905-46.906v-674.181c0-25.906 20.999-46.905 46.905-46.905h82.187c25.906 0 46.905 20.999 46.905 46.905v674.181z" />
<glyph unicode="&#xe919;" glyph-name="book" d="M512 951.757c-278.216 0-503.752-225.541-503.752-503.757s225.536-503.757 503.752-503.757 503.757 225.541 503.757 503.757-225.541 503.757-503.757 503.757zM512-5.632c-250.532 0-453.627 203.1-453.627 453.627s203.090 453.627 453.627 453.627 453.627-203.1 453.627-453.627-203.095-453.627-453.627-453.627zM669.434 164.593h-314.896c-52.090 0-94.466 42.376-94.466 94.466v377.878c0 52.095 42.376 94.471 94.466 94.471h15.747c8.704 0 15.742-7.048 15.742-15.747 0-8.695-7.043-15.742-15.742-15.742h-15.747c-34.728 0-62.978-28.254-62.978-62.982v-377.874c0-34.728 28.24-62.978 62.978-62.978h314.896c34.729 0 62.978 28.24 62.978 62.978v377.874c0 34.728-28.24 62.982-62.978 62.982h-15.747c-8.704 0-15.742 7.048-15.742 15.747 0 8.695 7.043 15.742 15.742 15.742h15.747c52.090 0 94.467-42.376 94.467-94.466v-377.874c0-52.099-42.376-94.475-94.467-94.475v0zM586.771 699.915h-149.573c-8.704 0-15.747 7.048-15.747 15.742s7.043 15.747 15.747 15.747h149.573c8.704 0 15.747-7.048 15.747-15.747 0.003-8.695-7.043-15.742-15.747-15.742v0zM671.4 535.25h-318.827c-8.708 0-15.747 7.048-15.747 15.742s7.043 15.747 15.747 15.747h318.827c8.704 0 15.747-7.048 15.747-15.747 0-8.694-7.043-15.742-15.747-15.742v0zM671.4 432.254h-318.827c-8.708 0-15.747 7.048-15.747 15.742 0 8.695 7.043 15.747 15.747 15.747h318.827c8.704 0 15.747-7.048 15.747-15.747 0-8.694-7.043-15.742-15.747-15.742v0zM671.4 329.252h-318.827c-8.708 0-15.747 7.043-15.747 15.747s7.043 15.742 15.747 15.742h318.827c8.704 0 15.747-7.043 15.747-15.742 0-8.704-7.043-15.747-15.747-15.747v0z" />
<glyph unicode="&#xe91a;" glyph-name="remind" d="M511.999 800c47.534 0 93.629-9.303 137.005-27.649 41.912-17.727 79.56-43.113 111.897-75.45s57.723-69.985 75.449-111.896c18.346-43.376 27.649-89.471 27.649-137.005s-9.303-93.629-27.649-137.005c-17.728-41.912-43.112-79.56-75.449-111.897s-69.985-57.723-111.897-75.45c-43.376-18.345-89.471-27.648-137.005-27.648s-93.629 9.303-137.005 27.649c-41.912 17.728-79.56 43.112-111.896 75.449s-57.723 69.985-75.45 111.897c-18.346 43.377-27.648 89.472-27.648 137.006s9.302 93.629 27.649 137.005c17.727 41.913 43.113 79.56 75.45 111.896s69.985 57.723 111.896 75.45c43.375 18.345 89.47 27.648 137.004 27.648zM511.999 832c-212.078 0-383.999-171.921-383.999-383.999s171.922-383.999 383.999-383.999 383.999 171.922 383.999 383.999-171.922 383.999-383.999 383.999v0zM717.024 264.586l0.057 0.143-124.601 125.164c24.531 29.729 38.633 66.637 39.791 104.28 2.317 45.81-15.147 93.146-46.629 126.578-26.904 29.137-64.744 48.749-103.772 53.779-7.574 1.074-15.345 1.611-23.060 1.611-38.633 0-76.275-12.887-105.977-36.287-34.449-26.367-58.216-65.959-65.253-108.604-6.952-39.734 0.565-82.378 20.658-116.968 13.734-24.022 33.291-44.681 56.549-59.686 21.365-13.876 45.923-22.947 71.018-26.198 7.519-1.045 15.261-1.582 22.948-1.582 35.636 0 70.877 11.19 99.561 31.537l126.776-127.17c4.099-3.392 9.299-5.258 14.695-5.258 12.717 0 23.061 10.43 23.061 23.26 0.056 5.652-2.063 11.163-5.822 15.401zM590.729 435.278c-20.376-41.882-61.354-72.487-106.965-79.921-21.365-3.729-43.86-2.571-64.83 3.335-40.92 11.276-75.935 41.119-93.71 79.892-20.574 43.069-18.002 97.272 6.556 138.165 21.845 37.784 60.364 64.321 102.98 70.962l3.024 0.452c1.583 0.254 3.194 0.509 4.749 0.707 5.255 0.565 10.625 0.82 15.91 0.82 21.76 0 43.267-4.72 62.229-13.65 34.675-15.968 62.313-45.641 75.822-81.446 14.81-38.209 12.66-82.804-5.765-119.316z" />
<glyph unicode="&#xe91b;" glyph-name="disLook" d="M504.361 943.554c-278.216 0-503.751-225.539-503.751-503.755s225.535-503.755 503.751-503.755 503.755 225.539 503.755 503.755-225.539 503.755-503.755 503.755zM504.361-13.829c-250.53 0-453.623 203.098-453.623 453.628s203.093 453.627 453.623 453.627c250.533 0 453.627-203.098 453.627-453.627s-203.094-453.628-453.627-453.628zM683.431 327.515c-31.733 0-57.46-25.723-57.46-57.456 0-25.014 15.99-46.284 38.302-54.176-4.502-31.095-39.918-47.706-73.037-47.706-35.442 0-62.668 26.377-62.668 61.82v165.461c104.094 11.844 185.828 100.227 187.113 207.066 14.9 7.059 25.207 22.229 25.207 39.812 0 24.32-19.715 44.035-44.035 44.035s-44.035-19.715-44.035-44.035c0-16.938 9.568-31.633 23.59-38.999v-15.305c0-81.779-84.528-158.13-156.301-158.13h-37.904c-73.228 0-152.656 99.669-152.656 156.671l-0.243 15.322c15.646 6.754 26.601 22.317 26.601 40.442 0 24.32-19.715 44.035-44.035 44.035s-44.035-19.715-44.035-44.035c0-17.873 10.654-33.247 25.951-40.148 1.519-111.647 90.888-203.062 201.745-207.882v-169.001c0-49.898 47.397-90.724 97.296-90.724 46.825 0 97.23 34.011 103.264 79.435 25.638 5.769 44.794 28.662 44.794 56.043 0.002 31.732-25.721 57.455-57.454 57.455zM683.429 236.48c-18.543 0-33.578 15.035-33.578 33.578s15.035 33.578 33.578 33.578c18.547 0 33.578-15.035 33.578-33.578s-15.031-33.578-33.578-33.578z" />
<glyph unicode="&#xe91c;" glyph-name="yesCheck" d="M512 953.754c-278.216 0-503.752-225.541-503.752-503.757s225.531-503.757 503.752-503.757 503.757 225.541 503.757 503.757c-0.005 278.221-225.541 503.757-503.757 503.757zM512-3.63c-250.532 0-453.627 203.1-453.627 453.627s203.095 453.627 453.627 453.627 453.627-203.1 453.627-453.627-203.095-453.627-453.627-453.627zM782.408 602.097l-337.997-337.997c-9.318-9.324-24.474-9.324-33.797 0l-169.021 169.021c-9.324 9.324-9.324 24.474 0 33.797 9.318 9.324 24.474 9.324 33.797 0l152.1-152.1 321.075 321.075c9.324 9.324 24.474 9.324 33.797 0 9.37-9.324 9.37-24.428 0.046-33.797z" />
<glyph unicode="&#xe91d;" glyph-name="password" d="M511.979 541.799c-56.769 0-102.953-46.185-102.953-102.954 0-48.171 33.258-88.717 78.017-99.893v-160.428h50.699v16.903h19.007v50.699h-19.007v23.938h18.512v50.699h-18.512v18.394c44.342 11.466 77.191 51.814 77.191 99.689 0 56.768-46.185 102.953-102.954 102.953zM511.979 386.591c-28.813 0-52.255 23.441-52.255 52.255s23.442 52.255 52.255 52.255c28.813 0 52.255-23.442 52.255-52.255s-23.442-52.255-52.255-52.255zM759.519 653.075h-336.69v48.767c0 56 41.217 101.56 91.88 101.56h6.34c50.662 0 91.88-45.56 91.88-101.56h50.699c0 83.955-63.96 152.259-142.577 152.259h-6.34c-78.618 0-142.577-68.303-142.577-152.259v-48.767h-107.697c-83.513 0-151.455-67.942-151.455-151.455v-308.264c0-83.512 67.942-151.455 151.455-151.455h495.084c83.514 0 151.459 67.942 151.459 151.455v308.264c0 83.513-67.944 151.455-151.459 151.455zM860.28 193.355c0-55.557-45.2-100.757-100.761-100.757h-495.084c-55.557 0-100.757 45.199-100.757 100.757v308.264c0 55.557 45.199 100.757 100.757 100.757h495.085c55.56 0 100.761-45.199 100.761-100.757v-308.264z" />
<glyph unicode="&#xe91e;" glyph-name="person" d="M882.886 210.671c-20.331 46.613-49.419 88.456-86.453 124.369-36.98 35.86-80.034 64.010-127.964 83.669-12.284 5.038-24.756 9.459-37.394 13.262 17.565 9.926 33.934 22.112 48.7 36.43 45.077 43.71 69.901 101.883 69.901 163.805s-24.824 120.098-69.901 163.809c-44.863 43.503-104.454 67.461-167.797 67.461s-122.936-23.959-167.799-67.461c-45.075-43.71-69.899-101.884-69.899-163.808 0-61.922 24.824-120.095 69.9-163.805 14.766-14.318 31.135-26.505 48.701-36.431-12.637-3.803-25.108-8.223-37.392-13.261-47.931-19.659-90.984-47.809-127.964-83.669-37.035-35.913-66.123-77.756-86.454-124.369-21.080-48.328-31.768-99.657-31.768-152.563 0-14.129 11.454-25.583 25.583-25.583s25.583 11.454 25.583 25.583c0 187.523 157.686 340.084 351.51 340.084s351.51-152.561 351.51-340.084c0-14.129 11.453-25.583 25.583-25.583s25.583 11.454 25.583 25.583c-0.001 52.905-10.688 104.235-31.769 152.562zM325.447 632.204c0 99.31 83.678 180.104 186.532 180.104s186.531-80.795 186.531-180.104c0-99.308-83.677-180.101-186.531-180.101s-186.532 80.793-186.532 180.101z" />
<glyph unicode="&#xe91f;" glyph-name="hospital" d="M694.373 41.901h-364.787v223.705h-223.705v364.788h223.705v223.705h364.786v-223.705h223.707v-364.788h-223.706v-223.705zM381.186 93.501h261.587v223.705h223.706v261.588h-223.707v223.705h-261.586v-223.705h-223.705v-261.588h223.705v-223.705z" />
<glyph unicode="&#xe920;" glyph-name="code" horiz-adv-x="1509" d="M1413.284 864.12v-832.241h-1317.403v832.241h1317.403zM1454.808 960h-1400.451c-30.020 0-54.356-24.336-54.356-54.356v-915.287c0-30.020 24.336-54.356 54.356-54.356h1400.451c30.020 0 54.356 24.336 54.356 54.356v915.287c0 30.020-24.336 54.356-54.356 54.356v0zM295.081 526.132h156.264v-156.264h-156.264v156.264zM676.449 526.132h156.264v-156.264h-156.264v156.264zM1057.819 526.132h156.264v-156.264h-156.264v156.264z" />
<glyph unicode="&#xe921;" glyph-name="save" d="M114.641 658.101v205.675h205.674v44.511h-250.185v-250.187h44.511zM909.708 908.288h-205.674v-44.512h205.674v-205.675h44.512v250.187h-44.512zM909.708 22.663h-205.674v-44.512h250.186v250.186h-44.512v-205.674zM114.641 228.336h-44.511v-250.186h250.186v44.512h-205.675v205.674zM139.967 829.24h75.21v-27.628h-75.21v27.628zM282.71 829.24h75.21v-27.628h-75.21v27.628zM436.788 829.24h75.21v-27.628h-75.21v27.628zM582.779 829.24h75.21v-27.628h-75.21v27.628zM727.057 829.24h75.21v-27.628h-75.21v27.628zM846.011 829.24h46.814v-27.628h-46.814v27.628zM865.196 178.452h27.628v-75.209h-27.628v75.209zM865.196 321.195h27.628v-75.211h-27.628v75.211zM865.196 475.273h27.628v-75.21h-27.628v75.21zM865.196 621.264h27.628v-75.21h-27.628v75.21zM865.196 765.542h27.628v-75.21h-27.628v75.21zM139.967 170.268h27.628v-75.209h-27.628v75.209zM139.967 313.010h27.628v-75.211h-27.628v75.211zM139.967 467.090h27.628v-75.21h-27.628v75.21zM139.967 613.081h27.628v-75.21h-27.628v75.21zM139.967 757.358h27.628v-75.21h-27.628v75.21zM135.569 74.081h75.21v-27.628h-75.21v27.628zM278.311 74.081h75.21v-27.628h-75.21v27.628zM432.39 74.081h75.21v-27.628h-75.21v27.628zM578.381 74.081h75.21v-27.628h-75.21v27.628zM722.659 74.081h75.21v-27.628h-75.21v27.628zM841.612 74.081h46.814v-27.628h-46.814v27.628zM202.897 493.102h620.090v-72.14h-620.090v72.14z" />
<glyph unicode="&#xe922;" glyph-name="player" d="M524.493 54.374c-225.86 0-409.6 183.74-409.6 409.6s183.74 409.6 409.6 409.6c225.86 0 409.6-183.74 409.6-409.6s-183.74-409.6-409.6-409.6zM524.493 805.308c-188.211 0-341.333-153.122-341.333-341.333s153.122-341.333 341.333-341.333c188.211 0 341.333 153.122 341.333 341.333s-153.122 341.333-341.333 341.333zM453.188 276.241v375.467l204.8-187.733z" />
<glyph unicode="&#xe923;" glyph-name="solidStar" horiz-adv-x="1031" d="M639.311 629.768l314.682-48.076-227.635-233.296 53.802-329.578-281.502 155.551-281.437-155.681 53.673 329.578-227.7 233.361 314.614 48.076 140.72 299.783 140.782-299.718z" />
<glyph unicode="&#xe924;" glyph-name="hollowStar" horiz-adv-x="1031" d="M498.542 820.6l109.376-232.852 250.050-38.2-181.049-185.547 42.214-258.578-220.483 121.835-220.427-121.933 42.103 258.556-181.104 185.609 249.991 38.203 109.33 232.908zM498.529 929.486l-140.717-299.783-314.617-48.076 227.7-233.361-53.673-329.578 281.437 155.681 281.502-155.551-53.802 329.578 227.635 233.296-314.682 48.076-140.782 299.718z" />
<glyph unicode="&#xe925;" d="M793.37 438.17c0-141.385-114.615-256-256-256s-256 114.615-256 256c0 141.385 114.615 256 256 256s256-114.615 256-256z" />
<glyph unicode="&#xe926;" d="M537.37 694.17c141.158 0 256-114.842 256-256s-114.842-256-256-256-256 114.842-256 256 114.842 256 256 256zM537.37 796.57c-197.939 0-358.4-160.461-358.4-358.4s160.461-358.4 358.4-358.4 358.4 160.461 358.4 358.4-160.461 358.4-358.4 358.4v0z" />
<glyph unicode="&#xe927;" glyph-name="download" d="M498.38 41.73c-220.351 0-399.61 179.258-399.61 399.61s179.258 399.61 399.61 399.61c220.351 0 399.61-179.258 399.61-399.61s-179.258-399.61-399.61-399.61zM498.38 774.348c-183.621 0-333.008-149.387-333.008-333.008s149.387-333.008 333.008-333.008c183.621 0 333.008 149.387 333.008 333.008s-149.421 333.008-333.008 333.008zM581.632 457.99v166.504h-166.504v-166.504h-99.902l183.154-199.805 183.154 199.805z" />
<glyph unicode="&#xe928;" glyph-name="cancel" d="M507.661 812.89c-205.005 0-371.2-166.195-371.2-371.2s166.195-371.2 371.2-371.2 371.2 166.195 371.2 371.2c0 205.005-166.182 371.2-371.2 371.2zM688.678 296.87l-36.198-36.198-144.819 144.819-144.806-144.819-36.198 36.198 144.819 144.819-144.832 144.819 36.198 36.198 144.819-144.819 144.819 144.819 36.198-36.198-144.806-144.819 144.806-144.819z" />
<glyph unicode="&#xe929;" d="M517.291 27.273c-225.86 0-409.6 183.74-409.6 409.6s183.74 409.6 409.6 409.6 409.6-183.74 409.6-409.6c0-225.86-183.774-409.6-409.6-409.6zM517.291 778.206c-188.211 0-341.333-153.122-341.333-341.333s153.122-341.333 341.333-341.333 341.333 153.122 341.333 341.333c0 188.211-153.122 341.333-341.333 341.333z" />
<glyph unicode="&#xe92a;" glyph-name="newChack" d="M844.826 621.363c0 0-117.939-40.755-251.699-191.846-126.234-142.618-154.982-199.27-205.773-275.866 0 0-74.598 141.466-268.8 245.632l99.917 95.59c0 0 94.259-65.357 157.286-179.174 0 0 160.768 249.498 469.043 367.795l0.026-62.131z" />
<glyph unicode="&#xe92b;" glyph-name="download2" d="M744.727 494.545v465.455h-465.455v-465.455h-279.273l512-558.545 512 558.545z" />
<glyph unicode="&#xe92c;" glyph-name="checkBook" d="M702.463 367.775c-49.774 0-90.27-40.496-90.27-90.27s40.496-90.27 90.27-90.27 90.27 40.496 90.27 90.27c0.008 49.774-40.489 90.27-90.27 90.27zM512 960c-282.769 0-512-229.224-512-511.992s229.231-512 512-512 512 229.231 512 512c0 282.761-229.231 511.992-512 511.992zM538.166 161.253h-245.851c-28.685 0-52.016 23.332-52.016 52.016v493.276c0 28.685 23.332 52.016 52.016 52.016h434.217c28.685 0 52.016-23.332 52.016-52.016l0.061-283.659c0 0 2.665-8.863-14.039-8.863-14.415 0-14.208 6.589-14.208 6.589v281.409c0 10.667-13.171 29.522-23.839 29.522h-434.217c-10.667 0-23.37-14.331-23.37-24.998v-493.276c0-10.667 17.103-23.716 27.771-23.716h245.267c0 0 9.193-0.207 9.193-15.529 0.015-15.322-13.002-12.772-13.002-12.772zM447.511 394.54c-9.032 0-16.351 5.975-16.351 13.355 0 7.373 7.319 13.355 16.351 13.355h162.861c9.032 0 16.351-5.983 16.351-13.355s-7.319-13.355-16.351-13.355h-162.861zM541.56 301.221c0-7.442-7.319-13.471-16.351-13.471h-77.698c-9.032 0-16.351 6.029-16.351 13.471s7.319 13.471 16.351 13.471h77.698c9.032 0 16.351-6.029 16.351-13.471zM447.511 501.145c-9.032 0-16.351 5.967-16.351 13.332s7.319 13.332 16.351 13.332h253.485c9.032 0 16.351-5.967 16.351-13.332s-7.319-13.332-16.351-13.332h-253.485zM700.996 606.261h-253.485c-9.032 0-16.351 6.29-16.351 14.054s7.319 14.054 16.351 14.054h253.485c9.032 0 16.351-6.29 16.351-14.054s-7.319-14.054-16.351-14.054zM367.816 394.54h-34.775c-9.032 0-16.351 5.975-16.351 13.355 0 7.373 7.319 13.355 16.351 13.355h34.775c9.032 0 16.351-5.983 16.351-13.355 0.008-7.373-7.319-13.355-16.351-13.355zM384.175 301.221c0-7.442-7.319-13.471-16.351-13.471h-34.775c-9.032 0-16.351 6.029-16.351 13.471s7.319 13.471 16.351 13.471h34.775c9.024 0 16.351-6.029 16.351-13.471zM367.816 501.145h-34.775c-9.032 0-16.351 5.967-16.351 13.332s7.319 13.332 16.351 13.332h34.775c9.032 0 16.351-5.967 16.351-13.332 0.008-7.365-7.319-13.332-16.351-13.332zM367.816 606.261h-34.775c-9.032 0-16.351 6.29-16.351 14.054s7.319 14.054 16.351 14.054h34.775c9.032 0 16.351-6.29 16.351-14.054s-7.319-14.054-16.351-14.054zM840.94 141.723c-3.195-3.195-3.955-3.372-3.955-3.372-3.963-1.667-13.217-1.068-16.412 2.127l-45.45 45.45c-19.983-15.89-45.204-25.451-72.66-25.451-64.535 0-117.035 52.5-117.035 117.035s52.5 117.035 117.035 117.035 117.035-52.5 117.035-117.035c0-26.381-8.878-50.657-23.654-70.256l43.83-43.83c6.382-6.39 7.649-15.314 1.267-21.704z" />
<glyph unicode="&#xe92d;" glyph-name="alarm" d="M674.278 550.896c0 68.19-58.498 117.933-129.231 117.933h-61.194c-66.347 0-142.010-46.395-142.010-117.933v-135.835c0-50.949-17.019-93.557-41.403-128.294h423.381c-27.878 34.736-49.543 80.647-49.543 128.294 0 0 0 135.835 0 135.835zM525.24 376.546h-32.793v121.436c-10.552-10.537-31.657-17.38-52.769-20.536v21.327c31.657 11.059 46.264 26.987 56.179 48.299h29.384v-170.526zM512 960c-282.769 0-512-229.231-512-512s229.231-512 512-512 512 229.231 512 512-229.231 512-512 512zM511.992 760.928c18.094 0 33.116-31.703 36.096-41.51h-72.192c2.98 9.807 18.002 41.51 36.096 41.51zM608.86 217.386c-8.256-46.917-50.181-82.306-97.512-82.306s-89.257 35.389-97.512 82.306c-2.043 11.597-1.221 23.531 10.253 25.597 4.101 0.73 18.255-0.53 21.611-19.63 4.646-26.434 33.039-57.4 65.679-57.4 32.194 0 62.538 29.545 67.184 55.979 2.035 11.597 8.31 23.293 19.837 21.197 11.474-2.066 12.495-14.154 10.46-25.743zM737.269 259.311c-17.057 0-146.311 0-194.94 0-0.346 0-0.676 0-1.021 0h-36.879c0 0-6.589 0-17.418 0-0.338 0-0.668 0-1.021 0-48.637 0-177.883 0-194.94 0-21.074 0-40.573 23.37-17.979 46.187 28.976 29.268 39.974 69.903 39.974 114.554v125.037c0 88.158 85.655 151.203 172.945 151.203h56.34c87.298 0 161.179-63.037 161.179-151.203v-125.045c0-44.651 16.881-85.286 45.857-114.554 22.587-22.809 8.978-46.18-12.096-46.18z" />
<glyph unicode="&#xe92e;" glyph-name="pancel" d="M434.901 343.384c6.528-6.459 17.779-6.674 24.561-0.453 0.138 0.131 14.231 13.064 31.757 30.397 168.729 166.87 244.246 287.822 244.246 333.656 0 6.267-1.444 10.867-4.278 13.678-3.034 3.003-7.903 4.57-14.538 4.57-43.538 0-163.038-67.584-338.126-240.759-17.541-17.341-30.628-31.265-30.758-31.403-6.198-6.612-5.983-17.587 0.461-23.961l86.676-85.724zM376.902 296.636c6.597-6.536 18.923-5.153 22.418-1.682 2.204 2.181 4.431 7.181 4.431 12.534 0 2.65-0.568 6.367-3.295 9.062l-78.781 77.913c-2.941 2.911-7.204 4.101-11.359 4.101-4.754 0-9.37-1.559-11.72-3.886-0.96-0.945-2.089-3.579-2.081-7.864 0-6.39 2.55-13.202 6.344-16.942l74.043-73.236zM274.966 322.417c-2.565 2.534-5.291 3.756-7.473 3.318-2.15-0.415-4.186-2.511-5.583-5.752-17.257-39.813-33.884-88.043-33.423-101.99 14.093-0.553 62.922 16.074 103.326 33.131 3.295 1.398 5.422 3.387 5.821 5.468 0.399 2.058-0.814 4.654-3.318 7.127l-59.351 58.698zM512 960c-282.769 0-512-229.231-512-512s229.231-512 512-512 512 229.231 512 512-229.231 512-512 512zM333.049 466.862c0.138 0.146 13.463 14.331 31.288 31.949 86.538 85.593 171.785 156.541 240.053 199.771 71.931 45.55 119.37 57.799 140.973 36.418 6.812-6.735 10.268-16.166 10.268-28.016 0-61.056-98.219-197.659-250.236-348.002-17.81-17.618-32.164-30.797-32.31-30.927-7.165-6.566-16.412-9.83-25.643-9.83-9.738 0-19.453 3.625-26.726 10.821l-86.668 85.716c-14.262 14.1-14.707 37.478-0.998 52.101zM284.412 409.024c11.858 11.712 36.91 14.162 51.448-0.223l78.781-77.913c5.99-5.921 9.285-14.239 9.277-23.416 0-10.222-3.994-20.521-10.422-26.865-5.553-5.507-14.623-8.686-24.123-8.686-9.485 0-19.4 3.172-26.673 10.368l-74.043 73.228c-7.603 7.511-12.326 19.499-12.334 31.28 0.008 9.178 2.88 17.065 8.087 22.226zM213.564 202.879c-4.232 4.186-17.088 16.911 29.837 125.122 4.086 9.439 11.474 15.836 20.26 17.541 8.824 1.705 18.117-1.49 25.49-8.778l59.366-58.713c7.365-7.288 10.621-16.504 8.932-25.275-1.697-8.801-8.179-16.174-17.779-20.237-65.464-27.648-96.261-34.283-111.321-34.283-10.107-0.008-13.125 2.98-14.784 4.623zM812.325 169.463c-3.94-3.94-10.322-3.94-14.262 0l-2.711 2.642-0.776 1.651c-0.614 1.298-1.743 2.342-3.087 2.857l-1.69 0.653-1.359 1.198c-81.623 71.838-223.318 92.436-291.57 42.386-80.924-59.343-202.19-57.147-237.426-55.081l-1.275 0.077-1.213 0.392c-0.776 0.246-1.567 0.33-2.419 0.238l-1.521-0.392c-2.074-0.868-3.448-2.918-3.448-5.192 0-5.576-4.516-10.084-10.084-10.084s-10.084 4.516-10.084 10.084c0 10.913 6.912 20.697 17.203 24.33l0.829 0.253 3.402 0.845c3.686 0.622 7.38 0.453 10.913-0.468 34.89-1.951 148.53-3.487 223.203 51.271 37.885 27.794 93.78 37.693 157.393 27.894 59.75-9.216 117.311-34.821 158.223-70.341 4.769-2.266 8.701-5.914 11.32-10.499l0.445-0.438c3.932-3.948 3.932-10.337-0.008-14.277z" />
<glyph unicode="&#xe92f;" glyph-name="timing" d="M512 705.463c14.054 0 25.505 11.451 25.505 25.505s-11.451 25.505-25.505 25.505-25.505-11.451-25.505-25.505 11.451-25.505 25.505-25.505zM512 960c-282.769 0-512-229.231-512-512s229.231-512 512-512 512 229.231 512 512-229.231 512-512 512zM447.511 676.617v63.014c0 21.273 17.226 38.5 38.5 38.5h51.97c21.273 0 38.5-17.226 38.5-38.5v-63.014h41.387c13.378 0 24.161-6.305 24.161-19.676 0-13.378-10.875-18.079-24.161-18.079h-211.744c-13.378 0-24.161 4.7-24.161 18.079s10.783 19.676 24.161 19.676c0 0 41.387 0 41.387 0zM587.079 387.344c0.184 0.184 0.468 0.561 0.837 1.114 0.561 0.929 1.49 2.88 2.788 5.86 1.49 3.164 3.955 5.253 7.396 6.275s6.743 1.444 9.907 1.26c2.043-0.184 4.093-0.276 6.136-0.276h75.724v-21.204c-1.114-0.184-2.235-0.276-3.348-0.276h-70.141c-2.604 0.184-5.023-0.515-7.258-2.089s-3.817-3.118-4.746-4.6c-0.745-1.49-2.043-4.37-3.909-8.648-1.859-4.278-3.533-8.648-5.023-13.117-0.745-2.235-1.951-3.717-3.625-4.462s-3.395-1.068-5.161-0.975-3.441 0.607-5.023 1.536c-1.582 0.929-2.65 2.043-3.21 3.348s-1.49 3.579-2.788 6.835c-1.306 3.256-2.604 6.559-3.909 9.907-1.674 3.909-3.348 8.095-5.023 12.557-4.838-15.437-9.208-29.668-13.117-42.693-1.674-5.583-3.348-11.067-5.023-16.466-1.674-5.391-3.21-10.368-4.6-14.93-1.398-4.554-2.557-8.417-3.487-11.581s-1.49-5.299-1.674-6.42c-0.929-4.462-2.696-7.995-5.299-10.606s-5.768-3.817-9.485-3.625c-3.909 0.369-6.697 2.043-8.371 5.023s-2.696 6.42-3.072 10.322c0 0.929-0.23 3.817-0.699 8.648-0.468 4.838-1.068 10.975-1.812 18.417s-1.536 15.721-2.373 24.837c-0.837 9.116-1.72 18.417-2.65 27.901-2.043 22.134-4.462 46.878-7.258 74.219-5.207-15.252-9.861-28.923-13.954-41.019-1.674-5.207-3.395-10.322-5.161-15.345s-3.348-9.577-4.746-13.67c-1.398-4.093-2.557-7.534-3.487-10.322l-1.674-5.023c-0.929-2.419-2.189-4.654-3.763-6.697-1.582-2.043-4.047-2.98-7.396-2.788-3.348 0-5.86 1.16-7.534 3.487s-2.98 4.977-3.909 7.956c-0.561 1.49-1.582 4.37-3.072 8.648s-3.072 8.648-4.746 13.117c-2.043 5.207-4.186 10.975-6.42 17.303-1.298-1.674-2.696-3.348-4.186-5.023-1.306-1.49-2.696-3.118-4.186-4.884s-2.98-3.487-4.462-5.161c-2.98-3.533-5.768-5.952-8.371-7.258s-5.675-1.766-9.208-1.398c-1.859 0.184-4.324 0.23-7.396 0.138s-6.182-0.138-9.347-0.138c-3.533-0.184-62.899-0.276-67.177-0.276v21.765h70.802c4.093 0 7.396 0.369 9.907 1.114s4.977 2.143 7.396 4.186l4.462 4.462c1.859 1.859 3.817 4.001 5.86 6.42s4.139 4.884 6.282 7.396c2.143 2.511 4.139 4.884 5.998 7.119 3.717 4.654 7.066 6.467 10.045 5.437 2.98-1.021 5.207-3.21 6.697-6.559l12.28-33.761c6.321 17.672 11.904 33.669 16.742 47.992 2.043 6.136 4.093 12.134 6.136 17.994s3.909 11.251 5.583 16.182c1.674 4.931 3.072 9.024 4.186 12.28s1.766 5.345 1.951 6.275c0.929 3.164 2.327 5.722 4.186 7.672s3.909 2.926 6.136 2.926c2.419 0 4.931-0.699 7.534-2.089s4.278-4.232 5.023-8.509c0.184-1.114 0.561-4.093 1.114-8.932 0.561-4.838 1.306-10.883 2.235-18.14s1.905-15.298 2.926-24.138 2.097-17.81 3.21-26.926c2.419-21.389 5.207-45.296 8.371-71.708 4.093 13.394 7.811 25.574 11.159 36.549 1.298 4.654 2.65 9.254 4.047 13.809s2.696 8.74 3.909 12.557c1.206 3.817 2.189 7.019 2.926 9.623s1.306 4.278 1.674 5.023c0.929 2.98 2.043 5.207 3.348 6.697s3.072 2.511 5.299 3.072c4.278 1.114 7.488 0.515 9.623-1.812 2.143-2.327 3.21-4.7 3.21-7.112 0-2.043-0.184-3.817-0.561-5.299-0.184-0.745-0.276-1.398-0.276-1.951l10.068-27.348zM797.702 221.679c0-57.239-46.564-103.802-103.802-103.802h-363.8c-57.239 0-103.802 46.564-103.802 103.802v408.574c0 57.239 46.564 103.802 103.802 103.802h57.239c10.099 0 18.294-8.187 18.294-18.294s-8.187-15.629-18.294-15.629h-63.652c-37.063 0-67.215-32.816-67.215-69.88v-408.574c0-37.063 23.009-74.357 60.073-74.357h376.94c37.063 0 74.357 37.302 74.357 74.357v408.574c0 37.063-30.152 69.88-67.215 69.88h-63.052c-10.099 0-18.294 5.522-18.294 15.629s8.187 18.294 18.294 18.294h56.325c57.231 0 103.802-46.564 103.802-103.802v-408.574z" />
<glyph unicode="&#xe930;" glyph-name="phone2" d="M275.327 594.753v-42.688l287.295 252.927h-49.152l-238.143-210.239zM275.327 686.273v-39.296l190.4 168.512h-32.32l-158.080-129.216zM826.238 92.546c0-77.888-63.232-141.12-141.056-141.12h-348.415c-77.952 0-141.184 63.232-141.184 141.12v707.582c0 77.888 63.168 141.12 141.184 141.12h348.159c78.016 0 141.184-63.232 141.184-141.12l0.128-707.582zM766.654 835.392h-511.359v-730.302h511.359v730.302zM516.287 71.362c-25.536 0-46.208-20.672-46.208-46.208s20.608-46.464 46.208-46.464c25.728 0 46.4 20.8 46.4 46.464 0 25.536-20.672 46.208-46.4 46.208z" />
<glyph unicode="&#xe931;" glyph-name="doctor" d="M514.888 649.714c31.096 0 60.618-4.931 85.524-13.578 20.836-6.244 37.908-14.999 47.854-26.12 0.73-0.63 1.521-1.244 2.22-1.889v96.829h-0.392l0.376 10.045 9.654 0.084-9.638 0.33c0 17.165-51.325 41.241-134.914 41.241s-134.914-24.077-134.914-41.341l0.407-10.053-0.407-0.015v-95.907c2.511 2.212 5.276 4.331 8.141 6.397 7.764 6.436 18.094 11.912 30.152 16.435 26.872 11.098 60.38 17.541 95.938 17.541zM484.682 716.2h21.105v21.105c0 5.437 4.454 9.892 9.892 9.892s9.892-4.454 9.892-9.892v-21.105h21.105c5.437 0 9.892-4.454 9.892-9.892s-4.454-9.892-9.892-9.892h-21.105v-21.105c0-5.437-4.454-9.892-9.892-9.892s-9.892 4.454-9.892 9.892v21.105h-21.105c-5.437 0-9.892 4.454-9.892 9.892s4.454 9.892 9.892 9.892zM421.837 448.369l0.008-0.054 0.069-0.276c10.829-43.131 49.382-73.259 93.749-73.259h0.015c47.293 0 88.366 35.266 95.531 82.045l0.1 0.538 26.734 126.42 0.276 2.189c0.069 0.484 0.115 0.968 0.115 1.459 0 2.895-1.452 5.983-4.063 9.116-10.767 8.947-25.567 16.527-42.954 22.241-19.914 5.622-45.511 9.431-75.878 9.431-36.388 0-65.956-5.453-87.029-12.971-10.552-4.155-19.899-9.039-27.663-14.538-5.353-4.531-8.202-9.108-8.202-13.279 0-0.484 0.038-0.968 0.115-1.444l0.415-2.842 27.325-128.509c0.369-2.051 0.822-4.155 1.336-6.267zM515.671 355.472c-36.027 0-68.789 16.596-90.278 43.315 3.233-61.486 14.070-117.88 30.835-159.305 16.082-39.744 36.495-62.53 56.018-62.53s39.936 22.786 56.018 62.523c16.028 39.606 26.626 92.928 30.351 151.288-21.297-21.811-50.918-35.289-82.936-35.289 0 0-0.008 0-0.008 0zM653.764 359.204c-2.204 11.497-7.188 22.218-14.661 31.472-6.851 1.536-13.816 2.711-20.82 3.525-1.252-22.011-3.433-43.023-6.428-62.807 10.606 13.018 25.075 22.886 41.91 27.809zM512 960c-282.769 0-512-229.231-512-512s229.231-512 512-512 512 229.231 512 512c0 282.776-229.231 512-512 512zM817.017 176.621h-1.905c-5.614-10.859-26.104-23.040-92.774-33.177-56.225-8.548-130.882-13.248-210.208-13.248s-153.983 4.708-210.208 13.256c-66.662 10.13-87.16 22.31-92.774 33.17h-2.158v16.243c0 101.406 68.751 189.856 167.193 215.1l23.631 6.059-13.079-20.598c-5.399-8.509-8.256-18.301-8.256-28.316v-80.793l-6.935-2.035c-14.968-4.401-25.421-18.386-25.421-33.999 0-19.546 15.898-35.443 35.443-35.443s35.451 15.898 35.451 35.443c0 14.799-9.331 28.178-23.217 33.285l-6.328 2.327v68.060c0 21.542 7.726 42.501 21.757 59.021l2.665 3.141 4.907 0.346c-3.825 6.781-7.081 13.97-9.531 21.588h-0.538l-1.72 8.010c-0.538 2.173-1.068 4.639-1.498 7.058l-27.141 127.587h-13.041v145.574h1.436c11.036 33.654 83.911 51.702 152.801 51.702 68.897 0 141.772-18.048 152.808-51.702h1.405l0.023-8.548c0-0.138 0-0.276 0-0.415 0-0.061 0-0.131 0-0.192v-136.435h-13.087l-26.45-125.060c-2.243-14.392-7.196-27.855-14.231-39.943 10.314-0.983 20.605-2.527 30.643-4.938l2.98-0.714 2.020-2.312c13.171-15.030 20.928-33.416 22.425-53.184l0.66-8.701-8.594-1.536c-31.319-5.591-54.052-32.717-54.052-64.481v-44.859l-3.356-2.888c-3.233-2.788-5.092-6.827-5.092-11.075 0-8.056 6.551-14.607 14.607-14.607s14.607 6.551 14.607 14.607c0 4.416-1.966 8.548-5.399 11.343l-3.564 2.903v46.71c0 29.898 24.322 54.228 54.228 54.228 29.929 0 54.251-24.322 54.251-54.228v-46.226l-3.978-2.895c-3.84-2.788-6.044-7.104-6.044-11.835 0-8.056 6.551-14.607 14.607-14.607s14.607 6.551 14.607 14.607c0 4.255-1.859 8.287-5.084 11.075l-3.356 2.888v44.859c0 30.812-21.919 57.776-52.116 64.128l-7.672 1.613v15.222c0 7.288-1.482 14.369-4.393 21.058l-10.514 24.115 23.624-11.574c75.893-37.194 124.93-115.507 124.93-199.502v-16.258zM422.329 282.435c-6.697 26.841-11.666 57.116-14.538 89.955-1.974-6.605-3.003-13.486-3.003-20.444v-55.050c6.874-3.579 12.818-8.54 17.541-14.461zM702.693 358.859c7.695-2.388 14.884-5.837 21.427-10.161-6.827 5.699-14.054 10.967-21.65 15.767 0.146-1.859 0.215-3.732 0.223-5.606zM747.406 325.889c9.546-13.809 15.076-30.459 15.076-48.077v-36.434c5.407-6.159 8.44-14.093 8.44-22.387 0-18.708-15.222-33.922-33.93-33.922s-33.93 15.214-33.93 33.922c0 9.070 3.671 17.741 10.022 24.069v36.879c0 19.246-15.659 34.905-34.905 34.905-19.277 0-34.936-15.659-34.936-34.905v-37.962c5.752-6.228 8.97-14.377 8.97-22.986 0-18.708-15.222-33.922-33.93-33.922s-33.93 15.214-33.93 33.922c0 8.294 3.034 16.228 8.44 22.387v8.97c-19.561-57.569-48.246-92.72-80.555-92.72-30.996 0-58.66 32.356-78.128 85.816-2.45-27.947-25.981-49.943-54.558-49.943-30.198 0-54.766 24.568-54.766 54.766 0 21.634 12.994 41.241 32.356 49.966v66.862c0 6.136 0.783 12.211 2.312 18.086-78.374-28.677-131.857-102.804-133.132-187.245h2.849l-2.45-10.859c7.327-9.692 87.605-35.558 285.395-35.558 197.982 0 278.222 25.92 285.418 35.589l-2.081 10.552 2.212 0.054c-0.691 48.33-19.146 94.44-50.258 130.175z" />
<glyph unicode="&#xe932;" glyph-name="bookPay" d="M512 960c-282.769 0-512-229.231-512-512s229.231-512 512-512 512 229.231 512 512c0 282.776-229.231 512-512 512zM798.601 376.83v-42.562l-156.141-171.117v-0.684h-312.544c-57.63 0-104.517 43.783-104.517 97.597v375.888c0 53.813 46.886 97.597 104.517 97.597h364.161c57.63 0 104.517-43.783 104.517-97.597l0.008-259.122zM700.62 704.595h-377.247c-38.077 0-69.058-27.763-69.058-61.885v-389.397c0-34.13 30.981-61.893 69.058-61.893h287.799v88.665l-0.284 1.137c0.814 25.49 10.184 49.090 26.619 66.785 15.844 17.057 32.425 24.545 54.52 25.221l2.381 0.1h76.239l-0.952 269.39c-0.008 34.114-30.989 61.877-69.074 61.877zM327.927 620.838h245.137v-29.368h-245.137v29.368zM512.676 342.255h-184.749v30.743h184.757l-0.008-30.743zM665.231 467.607h-337.304v28.569h337.304v-28.569zM656.929 320.874c-9.331-10.053-14.477-23.716-14.477-38.477v-80.332l124.853 137.779h-72.898c-12.564 0.138-28.569-9.377-37.478-18.97z" />
<glyph unicode="&#xe933;" glyph-name="radio" horiz-adv-x="1088" d="M989.399 601.080c-23.104 54.625-56.177 103.678-98.298 145.8-42.121 42.12-91.177 75.192-145.802 98.296-56.564 23.924-116.64 36.055-178.559 36.055-61.916 0-121.992-12.13-178.556-36.055-54.626-23.104-103.679-56.175-145.801-98.296s-75.195-91.174-98.299-145.8c-23.927-56.565-36.057-116.641-36.057-178.56 0-61.917 12.132-121.993 36.056-178.559 23.105-54.625 56.177-103.681 98.298-145.802 42.122-42.121 91.175-75.193 145.801-98.297 56.565-23.926 116.64-36.056 178.557-36.056s121.992 12.132 178.557 36.056c54.626 23.104 103.681 56.176 145.802 98.297s75.194 91.177 98.298 145.803c23.924 56.564 36.056 116.639 36.056 178.557 0.002 61.918-12.129 121.994-36.054 178.56v0zM953.747 259.042c-21.153-50.012-51.44-94.929-90.019-133.509-38.579-38.578-83.498-68.865-133.51-90.019-51.767-21.896-106.769-32.998-163.478-32.998s-111.709 11.102-163.478 32.998c-50.012 21.153-94.93 51.441-133.509 90.019s-68.866 83.498-90.020 133.51c-21.896 51.767-32.999 106.769-32.999 163.479s11.102 111.712 32.999 163.479c21.153 50.012 51.441 94.929 90.020 133.508 38.578 38.578 83.497 68.863 133.508 90.016 51.769 21.894 106.771 32.996 163.479 32.996s111.711-11.102 163.479-32.998c50.012-21.153 94.93-51.439 133.509-90.016s68.866-83.497 90.019-133.508c21.896-51.767 32.998-106.769 32.998-163.48 0.001-56.707-11.101-111.709-32.998-163.478v0zM455.74 229.553l271.416 178.715-271.416 209.025v-387.74z" />
<glyph unicode="&#xe934;" glyph-name="record" horiz-adv-x="1282" d="M902.385 375.425h-238.344v301.407c0 11.852-9.618 21.483-21.47 21.483-11.858 0-21.489-9.63-21.489-21.483v-322.877c0-11.852 9.63-21.483 21.489-21.483h259.813c11.872 0 21.483 9.63 21.483 21.483 0 11.857-9.611 21.47-21.483 21.47v0zM934.677 707.534c-74.561 74.562-177.564 120.694-291.313 120.694s-216.752-46.132-291.313-120.694c-74.563-74.562-120.695-177.565-120.695-291.333 0-113.747 46.132-216.751 120.695-291.313 74.561-74.562 177.564-120.688 291.313-120.688 32.607 0 64.409 3.811 94.95 11.028 31.287 7.384 61.351 18.431 89.657 32.652 10.571 5.273 14.846 18.128 9.567 28.699s-18.135 14.845-28.699 9.566c-25.095-12.618-51.998-22.468-80.253-29.144-27.302-6.438-55.84-9.85-85.222-9.85-101.89 0-194.156 41.317-260.947 108.102-66.791 66.791-108.101 159.056-108.101 260.946 0 101.896 41.311 194.175 108.101 260.966s159.057 108.102 260.947 108.102 194.156-41.311 260.947-108.102 108.101-159.070 108.101-260.966c0-33.463-4.429-65.851-12.727-96.585-8.614-31.841-21.316-61.893-37.468-89.51-5.981-10.184-2.556-23.311 7.641-29.292 10.192-5.974 23.299-2.543 29.273 7.649 18.213 31.113 32.433 64.711 42 100.080 9.276 34.358 14.24 70.48 14.24 107.665 0 113.762-46.12 216.765-120.695 291.327v0z" />
<glyph unicode="&#xe935;" glyph-name="next" horiz-adv-x="1016" d="M692.929 454.631c0-5.845-2.292-11.798-6.753-16.167l-228.279-228.418c-9.014-8.968-23.567-8.968-32.489 0-8.968 8.968-8.968 23.474 0 32.396l212.096 212.174-212.096 212.173c-8.968 8.922-8.968 23.474 0 32.442 9.014 8.922 23.474 8.922 32.489 0l228.279-228.372c4.461-4.506 6.753-10.367 6.753-16.229v0zM971.356 454.631c0-254.445-207.005-461.496-461.466-461.404-254.399-0.092-461.45 206.958-461.45 461.404 0 254.477 207.051 461.435 461.45 461.435 254.461 0 461.466-206.958 461.466-461.435v0zM94.342 454.631c0-229.155 186.407-415.532 415.548-415.532 229.172 0 415.595 186.361 415.595 415.532 0 229.187-186.409 415.518-415.595 415.518-229.125 0-415.548-186.331-415.548-415.518v0z" />
<glyph unicode="&#xe936;" glyph-name="search2" horiz-adv-x="983" d="M880.183 609.355c-21.695 51.294-52.751 97.356-92.304 136.909s-85.616 70.607-136.911 92.302c-53.115 22.466-109.527 33.856-167.67 33.856-58.14 0-114.553-11.391-167.668-33.856-51.295-21.695-97.357-52.749-136.91-92.302-39.554-39.553-70.61-85.614-92.305-136.909-22.467-53.116-33.858-109.529-33.858-167.671 0-58.141 11.392-114.554 33.857-167.67 21.696-51.294 52.751-97.358 92.304-136.911 39.554-39.553 85.615-70.608 136.91-92.303 53.116-22.467 109.527-33.857 167.669-33.857s114.553 11.392 167.669 33.857c51.295 21.695 97.358 52.75 136.911 92.303s70.609 85.616 92.304 136.912c22.466 53.115 33.857 109.526 33.857 167.669 0.002 58.142-11.39 114.555-33.855 167.671v0zM846.705 288.174c-19.863-46.962-48.303-89.14-84.529-125.368-36.226-36.225-78.406-64.665-125.369-84.529-48.61-20.56-100.258-30.985-153.509-30.985s-104.897 10.425-153.509 30.985c-46.962 19.863-89.141 48.304-125.368 84.529s-64.666 78.406-84.53 125.369c-20.56 48.61-30.985 100.258-30.985 153.51s10.425 104.899 30.986 153.51c19.863 46.962 48.304 89.14 84.53 125.367 36.225 36.225 78.405 64.664 125.367 84.527 48.612 20.559 100.26 30.984 153.51 30.984s104.898-10.425 153.51-30.985c46.962-19.863 89.141-48.302 125.368-84.527s64.666-78.405 84.529-125.367c20.56-48.61 30.985-100.258 30.985-153.511 0-53.249-10.425-104.897-30.986-153.509v0zM691.474 256.316l-82.255 82.255c-0.659 0.659-1.369 1.235-2.116 1.735 14.865 16.261 26.732 34.741 35.324 55.054 10.083 23.839 15.195 49.154 15.195 75.242s-5.113 51.404-15.195 75.243c-9.737 23.019-23.671 43.688-41.42 61.437-17.748 17.748-38.417 31.682-61.437 41.418-23.839 10.083-49.153 15.195-75.242 15.195s-51.404-5.113-75.243-15.195c-23.018-9.737-43.688-23.671-61.437-41.418s-31.682-38.417-41.42-61.437c-10.084-23.84-15.196-49.154-15.196-75.243s5.112-51.404 15.196-75.242c9.737-23.018 23.671-43.688 41.42-61.437 17.748-17.749 38.417-31.682 61.437-41.42 23.84-10.084 49.154-15.196 75.243-15.196s51.404 5.114 75.242 15.196c17.346 7.337 33.356 17.062 47.79 29.001 0.577-0.959 1.264-1.873 2.091-2.702l82.255-82.255c2.73-2.729 6.305-4.095 9.884-4.095s7.154 1.365 9.884 4.095c5.457 5.458 5.457 14.308-0.001 19.767l0.001 0.002zM464.33 305.264c-91.17 0-165.342 74.171-165.342 165.341s74.172 165.341 165.342 165.341c91.17 0 165.341-74.171 165.341-165.341s-74.172-165.341-165.341-165.341v0z" />
<glyph unicode="&#xe937;" glyph-name="pill" horiz-adv-x="1130" d="M1000.927 627.444c-22.645 53.54-55.061 101.618-96.345 142.902s-89.364 73.697-142.904 96.342c-55.44 23.449-114.322 35.338-175.010 35.338-60.685 0-119.567-11.889-175.007-35.338-53.541-22.645-101.619-55.058-142.903-96.342-41.285-41.284-73.701-89.362-96.346-142.902-23.45-55.441-35.339-114.323-35.339-175.011 0-60.686 11.89-119.569 35.339-175.010 22.646-53.54 55.061-101.62 96.345-142.904s89.363-73.699 142.903-96.343c55.441-23.45 114.322-35.339 175.008-35.339s119.567 11.89 175.008 35.339c53.541 22.645 101.62 55.059 142.904 96.343s73.7 89.364 96.345 142.905c23.449 55.44 35.339 114.321 35.339 175.008s-11.889 119.57-35.338 175.011v0zM965.984 292.204c-20.732-49.018-50.417-93.042-88.229-130.856-37.812-37.811-81.838-67.496-130.857-88.229-50.738-21.46-104.647-32.342-160.228-32.342s-109.489 10.881-160.228 32.342c-49.018 20.732-93.044 50.418-130.856 88.229s-67.497 81.838-88.23 130.857c-21.46 50.738-32.343 104.647-32.343 160.229s10.881 109.491 32.343 160.229c20.732 49.018 50.418 93.042 88.23 130.855 37.811 37.811 81.837 67.495 130.855 88.227 50.74 21.459 104.648 32.341 160.229 32.341s109.49-10.881 160.229-32.342c49.018-20.732 93.044-50.416 130.856-88.227s67.497-81.837 88.229-130.855c21.46-50.738 32.342-104.647 32.342-160.231 0.001-55.58-10.88-109.489-32.342-160.228v0zM778.602 644.362c-25.601 25.613-59.64 39.718-95.847 39.718-36.205 0-70.25-14.104-95.862-39.717l-192.172-192.171c-25.601-25.601-39.699-59.641-39.699-95.849s14.098-70.25 39.699-95.858c25.602-25.601 59.643-39.7 95.854-39.7s70.252 14.1 95.854 39.7l192.171 192.173c25.613 25.612 39.718 59.655 39.718 95.862s-14.106 70.245-39.716 95.843v0zM571.376 275.537c-21.581-21.582-50.276-33.467-80.801-33.467s-59.221 11.885-80.801 33.466c-44.549 44.559-44.549 117.054-0.001 161.604l88.571 88.571 161.601-161.603-88.569-88.571zM763.547 467.709l-88.548-88.549-161.601 161.603 88.549 88.549c21.591 21.592 50.288 33.482 80.808 33.482s59.212-11.889 80.795-33.483c21.591-21.581 33.481-50.272 33.481-80.791s-11.89-59.218-33.483-80.81v0zM682.758 645.647c-25.923 0-50.317-10.104-68.692-28.456l-61.553-61.553c-4.157-4.157-4.157-10.896 0-15.052 2.078-2.078 4.801-3.117 7.526-3.117s5.447 1.039 7.526 3.117l61.549 61.549c14.351 14.332 33.403 22.226 53.644 22.226 20.246 0 39.288-7.891 53.617-22.22 4.157-4.157 10.897-4.157 15.052-0.001 4.157 4.157 4.157 10.896 0 15.052-18.349 18.35-42.737 28.456-68.669 28.456v0z" />
<glyph unicode="&#xe938;" d="M683.008 406.903c0 23.177-4.642 46.012-13.551 67.789-8.909 21.060-21.402 39.97-37.103 56.73-33.178 34.236-76.356 52.804-122.027 52.804h-50.654v49.937c0 6.417-4.983 10.342-10.342 10.342-2.15 0-4.267-0.717-6.076-2.15l-38.537-29.969-49.22-38.537c-2.492-1.775-3.925-4.983-3.925-8.192s1.434-6.417 3.925-8.192l49.22-38.537 38.161-29.969c1.775-1.434 3.925-2.15 6.076-2.15 4.983 0 10.342 3.925 10.342 10.342v51.746h50.313c36.762 0 71.373-15.36 97.758-42.803 25.702-26.761 40.311-63.147 40.311-99.533s-14.643-72.772-40.311-99.533c-26.385-27.477-60.996-42.803-97.758-42.803h-55.296c-9.626 0-17.476-7.851-17.476-17.476s7.851-17.476 17.476-17.476h55.296c45.67 0 89.19 18.91 122.027 52.804 16.043 16.418 28.535 35.328 37.103 56.73 9.626 22.084 14.268 44.919 14.268 68.096z" />
<glyph unicode="&#xe939;" glyph-name="cry" d="M512-64c-136.785 0-265.324 53.248-362.065 149.935s-149.935 225.28-149.935 362.011c0 136.785 53.248 265.324 149.935 362.065s225.28 149.989 362.065 149.989 265.324-53.248 362.065-149.989 149.935-225.28 149.935-362.065-53.248-265.324-149.935-362.011-225.28-149.935-362.065-149.935zM512 906.105c-252.605 0-458.105-205.501-458.105-458.105s205.501-458.105 458.105-458.105 458.105 205.501 458.105 458.105-205.501 458.105-458.105 458.105zM350.316 582.737c-44.571 0-80.842 36.271-80.842 80.842s36.271 80.842 80.842 80.842 80.842-36.271 80.842-80.842-36.271-80.842-80.842-80.842zM350.316 690.526c-14.875 0-26.947-12.072-26.947-26.947s12.072-26.947 26.947-26.947c14.875 0 26.947 12.072 26.947 26.947s-12.072 26.947-26.947 26.947zM673.684 582.737c-44.571 0-80.842 36.271-80.842 80.842s36.271 80.842 80.842 80.842 80.842-36.271 80.842-80.842-36.271-80.842-80.842-80.842zM673.684 690.526c-14.875 0-26.947-12.072-26.947-26.947s12.072-26.947 26.947-26.947c14.875 0 26.947 12.072 26.947 26.947s-12.072 26.947-26.947 26.947zM296.367 205.474c-5.659 0-11.318 1.779-16.168 5.389-11.911 8.947-14.282 25.816-5.336 37.726 27.055 36.002 62.464 65.805 102.454 86.232 41.93 21.45 87.256 32.283 134.683 32.283s92.753-10.887 134.683-32.283c39.99-20.426 75.399-50.23 102.454-86.232 8.947-11.911 6.521-28.78-5.336-37.726s-28.78-6.521-37.726 5.336c-46.296 61.656-117.059 97.011-194.075 97.011s-147.725-35.355-194.075-97.011c-5.282-7.060-13.366-10.779-21.558-10.779v0.054z" />
<glyph unicode="&#xe93a;" glyph-name="arrow" horiz-adv-x="1418" d="M1310.011 124.258l-551.385 708.923c-8.98 11.5-23.001 16.069-36.549 14.178-13.548 1.89-27.569-2.678-36.549-14.178l-551.385-708.923c-13.391-17.172-10.24-41.905 6.853-55.217 7.168-5.593 15.754-8.271 24.182-8.271 11.737 0 23.316 5.199 31.114 15.202l525.785 675.998 525.863-675.998c7.798-10.004 19.377-15.202 31.114-15.202 8.428 0 17.014 2.678 24.182 8.271 17.093 13.312 20.165 38.046 6.774 55.217z" />
<glyph unicode="&#xe93b;" glyph-name="arrow2" horiz-adv-x="1418" d="M107.989 771.742l551.385-708.923c8.98-11.5 23.001-16.069 36.549-14.178 13.548-1.89 27.569 2.678 36.549 14.178l551.385 708.923c13.391 17.172 10.24 41.905-6.853 55.217-7.168 5.593-15.754 8.271-24.182 8.271-11.737 0-23.316-5.199-31.114-15.202l-525.785-675.998-525.863 675.998c-7.798 10.004-19.377 15.202-31.114 15.202-8.428 0-17.014-2.678-24.182-8.271-17.093-13.312-20.165-38.046-6.774-55.217z" />
<glyph unicode="&#xe93c;" glyph-name="triangleRight" horiz-adv-x="658" d="M607.466 45.404h-507.968v888.944z" />
<glyph unicode="&#xe93d;" glyph-name="triangleLeft" horiz-adv-x="658" d="M50.534 45.404h507.968v888.944z" />
<glyph unicode="&#xe93e;" glyph-name="paperBook" d="M765.665 7.639h-549.996c-90.511 0-140.36 49.848-140.36 140.36v499.999c0 90.511 49.848 140.36 140.36 140.36h65.362v-149.996h418.227c-0.189 10.701-0.118 26.476 0.046 50.227 0.271 39.997 0.998 84.229 1.004 84.669l0.256 15.104h65.106c90.511 0 140.36-49.848 140.36-140.36v-499.999c-0.005-90.511-49.853-140.365-140.365-140.365zM215.67 757.642c-73.779 0-109.64-35.86-109.64-109.64v-499.999c0-73.774 35.86-109.64 109.64-109.64h549.996c73.774 0 109.64 35.866 109.64 109.64v499.994c0 73.779-35.866 109.64-109.64 109.64h-34.877c-0.241-16.41-0.599-43.709-0.768-69.263-0.353-51.389 0.307-60.564 0.522-62.152-0.655 4.895-5.832 12.134-14.874 12.134v-30.72h-465.357v150.006h-34.642zM265.667 223.002h300.001v-38.682h-300.001v38.682zM265.667 512.758h450.002v-41.718h-450.002v41.718zM265.667 368.732h450.002v-41.907h-450.002v41.907zM681.027 657.638h-380.718v115.364c0 63.611 51.748 115.359 115.359 115.359h149.996c63.611 0 115.359-51.748 115.359-115.359v-115.364zM331.028 688.358h319.278v84.644c0 46.669-37.97 84.639-84.639 84.639h-150.001c-46.669 0-84.639-37.97-84.639-84.639v-84.644zM490.665 707.64c-36.040 0-65.362 29.322-65.362 65.362s29.322 65.362 65.362 65.362c36.040 0 65.357-29.322 65.357-65.362s-29.317-65.362-65.357-65.362zM490.665 807.639c-19.098 0-34.642-15.539-34.642-34.642s15.539-34.642 34.642-34.642 34.637 15.539 34.637 34.642-15.534 34.642-34.637 34.642zM691.625 638.295h38.4v-30.295h-38.4v30.295z" />
<glyph unicode="&#xe93f;" glyph-name="andSoOn" d="M122.432 596.417c-67.584 0-122.432-54.784-122.432-122.432s54.848-122.432 122.432-122.432 122.432 54.848 122.432 122.432-54.785 122.432-122.432 122.432zM511.999 596.417c-67.648 0-122.432-54.848-122.432-122.432s54.784-122.432 122.432-122.432 122.368 54.848 122.368 122.432-54.721 122.432-122.368 122.432zM901.566 596.417c-67.648 0-122.432-54.848-122.432-122.432s54.848-122.432 122.432-122.432 122.432 54.848 122.432 122.432-54.849 122.432-122.432 122.432z" />
<glyph unicode="&#xe940;" glyph-name="noteBook" horiz-adv-x="1112" d="M968.366 71.429v194.995h68.844v-194.99h-68.844zM968.366 547.272h68.844v-194.99h-68.844v194.99zM968.366 828.129h68.844v-194.995h-68.844v194.995zM949.432-46.996h-740.838v993.454h404.076v-507.684l92.692 97.684 92.692-97.684v507.684h151.378v-993.454zM239.314-16.276h679.393v932.014h-89.938v-553.974l-123.412 130.063-123.412-130.063v553.974h-342.63v-932.014zM74.47 945.92h96.937v-992h-96.937v992zM580.291 947.2h252.186v-30.72h-252.186v30.72z" />
<glyph unicode="&#xe941;" glyph-name="medicineCabinet" d="M940.867 442.255h-861.829v115.896c0 39.782 32.364 72.141 72.141 72.141h30.305v116.014c0 36.332 29.558 65.889 65.889 65.889h525.158c36.332 0 65.889-29.558 65.889-65.889v-116.014h30.3c39.782 0 72.146-32.364 72.146-72.141v-115.896zM109.757 472.975h800.389v85.176c0 22.84-18.586 41.421-41.426 41.421h-61.020v146.734c0 19.395-15.775 35.169-35.169 35.169h-525.158c-19.395 0-35.169-15.78-35.169-35.169v-146.734h-61.025c-22.84 0-41.421-18.58-41.421-41.421v-85.176zM757.064 604.692h-494.228v80.026c0 36.332 29.558 65.889 65.894 65.889h362.45c36.332 0 65.889-29.558 65.889-65.889v-80.026zM293.555 635.412h432.788v49.306c0 19.395-15.775 35.169-35.169 35.169h-362.445c-19.395 0-35.174-15.78-35.174-35.169v-49.306zM868.726 60.442h-717.548c-39.782 0-72.141 32.358-72.141 72.141v341.238h861.829v-341.238c0-39.782-32.364-72.141-72.141-72.141zM109.757 443.1v-310.518c0-22.84 18.58-41.421 41.421-41.421h717.548c22.84 0 41.421 18.58 41.421 41.421v310.518h-800.389zM388.081 301.957h87.050v87.045h69.642v-87.045h87.050v-69.642h-87.050v-87.055h-69.642v87.055h-87.050z" />
<glyph unicode="&#xe942;" glyph-name="userBook" d="M810.67 48.64h-597.335c-55.521 0-100.695 45.169-100.695 100.69v597.335c0 55.521 45.174 100.695 100.695 100.695h27.305v85.335h116.055v-85.335h310.61v85.335h116.055v-85.335h27.305c55.526 0 100.695-45.174 100.695-100.695v-597.33c0-55.526-45.169-100.695-100.69-100.695zM213.335 816.64c-38.584 0-69.975-31.391-69.975-69.975v-597.335c0-38.579 31.391-69.97 69.975-69.97h597.335c38.579 0 69.97 31.391 69.97 69.975v597.33c0 38.584-31.391 69.975-69.975 69.975h-58.025v85.335h-54.615v-85.335h-372.050v85.335h-54.615v-85.335h-58.025zM512 686.080c70.4 0 128-57.6 128-128s-57.6-128-128-128-128 57.6-128 128 57.6 128 128 128zM768 209.92h-512v42.665c0 85.335 170.665 132.265 256 132.265s256-46.935 256-132.265v-42.665z" />
<glyph unicode="&#xe943;" glyph-name="jyjc" horiz-adv-x="1025" d="M478.403 193.597c-0.799 0-0.799 0-0.799 0-0.799 0-0.799 0-1.603 0l-92.8 2.401c-0.799 0-103.997 0-104.801 0-15.201 0-27.197-12.001-27.197-27.203 0-12.8 8.801-23.199 20.803-26.399 0.799 0 1.603 0 2.401-0.799 0.799 0 0.799 0 1.603 0 0.799 0 1.603 0 2.401 0h103.199l96.799-2.401c0.799 0 1.603 0 2.401 0h0.799c13.599 1.603 24.003 12.8 24.003 27.203-0.010 15.201-12.012 27.197-27.208 27.197zM148.797 904.003h468.797v-208c0-26.399 19.2-48.799 44.001-54.4 3.2-0.799 10.399-0.799 10.399-0.799h207.201v-211.2h55.204v240.794c0.799 9.6-3.999 20.797-12.8 29.599-0.799 0.799-0.799 0.799-1.603 1.603l-152.801 148.803c-0.799 0-96.799 93.599-97.603 94.403-1.603 1.603-3.999 3.999-6.4 5.601-1.597 1.603-3.2 2.401-5.601 3.999-3.2 1.603-9.6 4.803-16 4.803-0.799 0-0.799 0-1.597 0h-335.201c-0.799 0-154.399 0-155.203 0-26.399 0-48.799-19.2-54.4-44.001-0.799-3.2-0.799-7.199-0.799-11.203 0-116.803 0-901.601 0-912.799 0-26.399 19.2-48.799 44.001-53.601 3.2-0.799 7.199-0.799 11.197-0.799h428.001v53.596c-172.8 0-410.394 0-428.795 0 0 4.803 0 913.603 0 913.603zM672.799 864.799l176.799-168.801c0 0-161.603 0-176.799 0 0 5.601 0 168.801 0 168.801zM477.599 352c-0.799 0-0.799 0-1.603 0-0.799 0-0.799 0-1.603 0h-91.192c-0.799 0-103.997 0-104.801 0-15.201 0-27.197-12.001-27.197-27.203 0-12.8 8.801-23.199 20.803-26.399 0.799 0 1.603 0 2.401-0.799 0.799 0 0.799 0 1.603 0 0.799 0 1.603 0 2.401 0h199.199c0 0 0 0 0.799 0 15.201 0 27.203 12.001 27.203 27.203-0.010 15.196-12.81 27.197-28.012 27.197zM752.799 454.395c12.8 2.401 23.199 13.599 23.199 27.203 0 15.201-12.001 27.203-27.203 27.203h-0.799c-0.799 0-0.799 0-1.597 0l-469.596-0.799c-15.201 0-27.203-12.001-27.203-27.203s12.001-27.203 27.203-27.203h470.395c1.603 0 3.999 0 5.601 0.799zM803.901 377.533c-121.626 0-220.575-98.949-220.575-220.575s98.949-220.575 220.575-220.575 220.575 98.949 220.575 220.575-98.954 220.575-220.575 220.575zM803.901-12.416c-93.394 0-169.375 75.981-169.375 169.375s75.981 169.375 169.375 169.375 169.375-75.981 169.375-169.375-75.981-169.375-169.375-169.375zM918.968 235.279c-9.052 9.052-22.625 10.184-33.377 3.958-0.563-0.563-1.132-1.132-2.263-1.132-0.563-0.563-0.563-0.563-1.132-1.132s-1.132-1.132-1.695-1.695l-122.189-122.189c-16.020 16.020-34.104 34.104-34.417 34.417-10.747 10.747-27.72 10.747-38.467 0-9.052-9.052-10.184-22.625-3.958-33.377 0.563-0.563 1.132-1.132 1.132-2.263 0.563-0.563 0.563-0.563 1.132-1.132 0.563-0.563 1.132-1.132 1.695-1.695l53.089-53.089c0 0 0 0 0.563-0.563 10.747-10.747 27.72-10.747 38.467 0 0.092 0.092 0.154 0.205 0.246 0.302 0.102 0.097 0.22 0.164 0.317 0.261 0.389 0.389 0.553 0.553 0.778 0.778-1.009-1.009-1.91-1.91-2.693-2.698l4.183 4.183c-0.189-0.189-0.276-0.271-0.379-0.379 29.804 29.804 138.481 138.481 138.972 138.972 10.742 10.752 10.742 27.725-0.005 38.472z" />
<glyph unicode="&#xe944;" glyph-name="circleTitle" d="M512 83.627c-201.216 0-364.373 163.157-364.373 364.373s163.157 364.373 364.373 364.373c201.216 0 364.373-163.157 364.373-364.373s-163.157-364.373-364.373-364.373zM512 584.704c-75.435 0-136.704-61.099-136.704-136.704 0-75.435 61.099-136.704 136.704-136.704s136.704 61.099 136.704 136.704c0 75.435-61.269 136.704-136.704 136.704z" />
<glyph unicode="&#xe945;" glyph-name="moreArrow" d="M880.981 448l-368.811-246.613v185.173h-369.152v122.88h368.981v185.173l368.981-246.613z" />
<glyph unicode="&#xe946;" glyph-name="upArrow" d="M810.667 314.709l-298.667 320-298.667-320 49.835-53.419 248.832 266.752 248.832-266.752z" />
<glyph unicode="&#xe947;" glyph-name="downArrow" d="M810.667 581.291l-298.667-320-298.667 320 49.835 53.419 248.832-266.752 248.832 266.752z" />
<glyph unicode="&#xe948;" glyph-name="ticketcard" d="M776.533 393.387l-135.851 236.373c-25.088 43.52-80.384 58.368-123.733 33.28l-47.104-27.307c-3.072 27.989-16.384 58.368-46.592 101.035-16.384 23.211-39.083 36.523-65.536 38.571-22.528 1.707-46.763-5.12-68.267-19.456-43.349-28.843-71.851-87.552-39.424-139.435 20.992-33.621 42.837-56.32 63.488-71.509l-31.915-18.432c-43.349-25.088-58.197-80.725-33.109-124.245l135.851-236.373c25.088-43.52 80.384-58.368 123.733-33.28l235.349 136.533c43.349 25.088 58.197 80.725 33.109 124.245zM278.187 634.197c-16.384 26.112-11.435 66.901 29.696 94.208 12.288 8.192 27.477 13.995 42.837 13.995 16.384 0 32.768-6.827 45.397-24.747 27.648-39.083 39.595-64.683 41.131-88.405 0.341-4.096 0.171-8.363-0.171-12.459l-91.477-53.077c-21.163 12.288-44.544 33.792-67.413 70.485zM489.813 437.248c-21.675-12.629-49.323-5.12-61.952 16.725-12.459 21.845-5.12 49.664 16.555 62.123 21.675 12.629 49.323 5.12 61.952-16.725s5.12-49.664-16.555-62.123z" />
<glyph unicode="&#xe949;" glyph-name="end" d="M509.44-17.92c-123.051 0-238.763 47.957-325.803 134.997s-134.997 202.752-134.997 325.803c0 123.051 47.957 238.763 134.997 325.803s202.752 134.997 325.803 134.997c123.051 0 238.763-47.957 325.803-134.997s134.997-202.752 134.997-325.803c0-123.051-47.957-238.763-134.997-325.803s-202.752-134.997-325.803-134.997zM509.44 835.413c-104.789 0-203.435-40.789-277.504-115.029-74.24-74.069-115.029-172.715-115.029-277.504s40.789-203.435 115.029-277.504c74.069-74.069 172.715-115.029 277.504-115.029s203.435 40.789 277.504 115.029 115.029 172.715 115.029 277.504c0 104.789-40.789 203.435-115.029 277.504-74.069 74.24-172.715 115.029-277.504 115.029zM338.773 613.547h341.333v-341.333h-341.333v341.333z" />
<glyph unicode="&#xe94a;" glyph-name="passP" d="M514.048-10.24c-123.051 0-238.763 47.957-325.803 134.997s-134.997 202.752-134.997 325.803c0 123.051 47.957 238.763 134.997 325.803s202.752 134.997 325.803 134.997c123.051 0 238.763-47.957 325.803-134.997s134.997-202.752 134.997-325.803c0-123.051-47.957-238.763-134.997-325.803s-202.581-134.997-325.803-134.997zM514.048 843.093c-104.789 0-203.435-40.789-277.504-115.029-74.069-74.069-115.029-172.715-115.029-277.504s40.789-203.435 115.029-277.504c74.069-74.069 172.715-115.029 277.504-115.029s203.435 40.789 277.504 115.029 115.029 172.715 115.029 277.504c0 104.789-40.789 203.435-115.029 277.504-74.069 74.24-172.544 115.029-277.504 115.029zM593.749 529.408c17.237 22.016 26.112 44.715 26.112 67.925 0 112.469-71.68 124.587-102.571 124.587-35.669 0-64.171-14.677-82.603-42.325-14.336-21.675-21.504-50.347-21.504-85.504 0-22.016 8.021-43.861 23.211-64.683h-89.429v-350.208h334.507v350.208h-87.723zM517.291 658.773c13.824 0 39.424 0 39.424-61.611 0-19.968-23.211-42.667-42.496-56.832-4.096 3.072-8.704 6.827-13.312 11.093-11.264 10.581-24.747 26.453-24.747 42.667 0.171 64.683 29.867 64.683 41.131 64.683zM618.325 242.347h-208.213v223.915h208.213v-223.915z" />
<glyph unicode="&#xe94b;" glyph-name="hostag" d="M646.195 73.375v25.375l6.144 3.93c6.664 4.264 12.947 10.717 17.353 17.82 2.193 3.539 4.102 4.54 8.899 4.669 17.922 0.479 18.184 1.317 18.303 58.409l0.092 44.646h22.118c19.933 0 22.442 0.324 25.395 3.277s3.277 5.462 3.277 25.395v22.118h46.672c25.668 0 49.814 0.707 53.658 1.569 3.842 0.862 12.065 2.376 18.272 3.359 22.802 3.619 31.9 15.108 32.090 40.538l0.041 5.325h29.491v255.59h-30.491l-2.046 12.177c-3.426 20.392-11.637 28.701-31.799 32.176-6.517 1.124-12.884 2.849-14.146 3.832-1.509 1.174-19.352 1.956-52.019 2.284l-49.723 0.498v22.596c0 29.346 1.346 28.019-28.391 28.019h-22.399l-0.008 44.646c-0.010 49.193-0.895 55.777-7.811 58.214-3.4 1.198-5.186 3.627-7.465 10.15-3.916 11.209-14.234 21.535-25.833 25.86l-8.854 3.299-0.924 38.054h-255.382l-0.924-38.054-8.854-3.299c-11.6-4.325-21.918-14.651-25.833-25.86-2.279-6.523-4.065-8.952-7.465-10.15-6.916-2.437-7.801-9.021-7.811-58.214l-0.008-44.646h-22.684c-29.436 0-28.107 1.337-28.107-28.283v-22.29l-49.721-0.518c-32.639-0.34-50.512-1.133-52.019-2.304-1.264-0.983-7.631-2.707-14.148-3.832-20.163-3.475-28.373-11.784-31.799-32.176l-2.046-12.177h-30.491v-255.59h33.843l1.974-8.548c4.18-18.113 13.998-28.066 32.15-32.594 4.489-1.12 9.4-3.566 10.912-5.433 2.652-3.277 4.471-3.414 52.046-3.914l49.299-0.52v-22.008c0-29.477-0.918-28.563 28.672-28.563h22.118l0.008-45.466c0.010-42.523 1.268-57.754 4.774-57.754 0.741 0 1.837-3.684 2.435-8.186 2.9-21.86 13.554-32.492 35.478-35.4l8.096-1.073v-32.346h255.59v25.375zM491.934 403.453c-0.713 28.682 1.001 26.968-27.681 27.681l-22.858 0.565v51.802l22.858 0.565c28.682 0.713 26.968-1.001 27.681 27.681l0.565 22.858h51.802l0.565-22.858c0.713-28.682-1.001-26.968 27.681-27.681l22.858-0.565v-51.802l-22.858-0.565c-28.682-0.713-26.968 1.001-27.681-27.681l-0.565-22.858h-51.802l-0.565 22.858z" />
<glyph unicode="&#xe94c;" glyph-name="pwd" d="M398.72 853.35v-10.65h-7.281c-12.894 0-12.38 3.547-12.38-85.531v-78.248l-120.34-0.44c-95.971-0.35-120.773-0.87-122.47-2.566-1.411-1.407-2.316-8.188-2.685-20.070l-0.555-17.945h-21.008v-571.802h21.299v-21.299h776.602v21.299h21.299v571.802h-21.008l-0.555 17.945c-0.369 11.885-1.274 18.663-2.685 20.070-1.72 1.716-44.962 2.208-224.87 2.552l-222.74 0.428v42.328l9.421 1.020c28.441 3.082 27.683 2.329 30.724 30.519l0.993 9.187 20.799 0.905c24.656 1.071 21.26 3.297 23.175-15.196 2.13-20.601 3.981-22.501 23.947-24.603 8.051-0.846 14.756-1.552 14.899-1.569s0.512-7.746 0.819-17.177c0.791-24.283-1.446-22.993 39.881-22.993 44.55 0 39.322-10.908 39.322 82.039 0 85.027 0.862 79.272-11.878 79.319l-6.963 0.025v21.299h-245.76v-10.65zM759.602 590.578c3.41-9.601 12.947-18.821 22.401-21.654 3.662-1.096 6.656-2.957 6.656-4.133 0-4.002 7.338-6.097 23.953-6.84l16.581-0.743 0.85-14.948c1.319-23.228 2.132-24.037 25.326-25.252l15.21-0.795v-328.425l-15.21-0.795c-23.194-1.214-24.007-2.025-25.326-25.244l-0.848-14.944-14.944-0.848c-23.218-1.319-24.029-2.132-25.244-25.326l-0.795-15.21h-533.225l-0.795 15.21c-1.214 23.194-2.025 24.007-25.244 25.326l-14.944 0.848-0.784 15c-1.202 22.991-2.015 23.794-25.444 25.123l-15.155 0.86v296.972l8.002 2.843c9.601 3.41 18.821 12.947 21.654 22.401 1.096 3.662 2.957 6.656 4.133 6.656 4.002 0 6.097 7.338 6.84 23.962l0.743 16.587 16.587 0.743c16.624 0.743 23.962 2.839 23.962 6.84 0 1.176 2.994 3.037 6.656 4.133 9.454 2.832 18.991 12.052 22.401 21.654l2.843 8.002h470.319l2.843-8.002zM428.74 554.867c-8.055-1.628-7.901 0.33-7.901-100.659 0-111.659-2.607-100.178 22.956-101.124l17.185-0.635v-100.25c0-75.786 0.479-100.727 1.966-102.214 2.787-2.787 73.562-2.787 76.349 0 1.296 1.296 1.966 8.266 1.966 20.48v18.514h18.514c24.24 0 22.446-3.219 22.446 40.268 0 43.033 1.884 39.727-23.038 40.425l-18.741 0.526 18.924 0.35c24.699 0.457 22.856-2.808 22.856 40.491 0 43.307 1.843 40.042-22.856 40.466-10.963 0.188-2.922 0.705 19.114 1.229 33.589 0.797 38.38 1.245 40.96 3.83 4.524 4.528 4.52 191.146-0.002 195.67-2.793 2.796-177.922 5.21-190.697 2.632z" />
<glyph unicode="&#xe94d;" glyph-name="user" horiz-adv-x="1137" d="M427.162 805.789v-10.213l-18.571-0.487c-23.429-0.618-22.757 0.076-22.757-23.495v-17.275l-17.66-0.526c-25.956-0.77-22.931 18.094-22.931-142.961 0-160.625-3.002-141.785 22.77-142.848l17.822-0.733v-40.923l-25.461-0.080c-53.51-0.168-54.659-0.682-55.486-24.855l-0.549-16.042-17.584-0.627c-23.032-0.821-22.542-0.332-23.181-23.208l-0.487-17.478-15.749-0.733c-25.68-1.194-24.367 1.159-25.086-45.025l-0.559-35.793-6.859-0.059c-20.994-0.178-30.343-1.784-32.182-5.532-0.682-1.391-1.438-42.215-1.677-90.72l-0.436-88.193h119.337l0.936 14.391c0.514 7.916 1.335 33.364 1.823 56.556l0.889 42.164 6.756 1.995c8.706 2.57 18.606 12.304 21.15 20.793 1.389 4.635 2.957 6.693 5.966 7.827 5.294 1.999 5.382 2.306 6.543 22.87l0.989 17.488 15.657 0.838c23.773 1.274 23.777 1.276 23.777 25.391v15.284l19.276 0.487c17.66 0.444 19.485 0.752 21.77 3.662 1.372 1.745 4.821 3.652 7.662 4.235 14.739 3.029 23.607 12.294 25.981 27.14l0.967 6.040h219.173l0.967-6.040c2.374-14.846 11.241-24.111 25.981-27.14 2.841-0.584 6.289-2.49 7.662-4.235 2.286-2.91 4.11-3.217 21.77-3.662l19.276-0.487v-15.284c0-24.115 0.004-24.117 23.777-25.391l15.657-0.838 0.989-17.488c1.161-20.564 1.249-20.871 6.543-22.87 3.009-1.135 4.577-3.193 5.966-7.827 2.568-8.573 12.438-18.221 21.322-20.845l6.928-2.046 0.104-33.257c0.059-18.291 0.739-38.57 1.516-45.064 0.774-6.496 1.794-16.957 2.265-23.249l0.856-11.438h117.899l-0.436 88.193c-0.24 48.505-0.985 89.303-1.655 90.661-1.794 3.635-4.35 4.225-22.548 5.2l-16.521 0.885-0.555 35.578c-0.715 45.935 0.584 43.614-25.084 44.806l-15.749 0.733-0.487 17.478c-0.641 22.895-0.127 22.385-23.339 23.212l-17.742 0.633v13.621c0 26.227 0.414 25.985-46.125 26.997l-35.056 0.762v40.509l17.822 0.733c25.772 1.063 22.77-17.777 22.77 142.848 0 161.055 3.025 142.191-22.931 142.961l-17.66 0.526v17.275c0 23.57 0.672 22.876-22.757 23.495l-18.571 0.487v20.425h-284.877v-10.211zM632.918 701.976c1.8-21.682 6.050-26.018 26.759-27.31l12.19-0.762 1.051-34.12c0.578-18.766 0.483-47.071-0.211-62.902l-1.26-28.783-12.112-0.901c-21.252-1.579-24.502-4.776-26.321-25.872l-1.034-12.012-5.36-0.887c-2.947-0.487-28.606-0.887-57.020-0.887s-54.073 0.399-57.020 0.887l-5.36 0.887-1.034 12.012c-1.819 21.096-5.069 24.293-26.321 25.872l-12.112 0.901-1.26 28.783c-0.694 15.831-0.788 44.136-0.211 62.902l1.051 34.12 12.19 0.762c20.709 1.292 24.959 5.628 26.759 27.31l1.012 12.177h124.613l1.012-12.177z" />
<glyph unicode="&#xe94e;" glyph-name="person3" horiz-adv-x="931" d="M356.655 858.219v-5.779l-23.087-2.59-1.294-11.543-1.296-11.543h-9.95c-12.623 0-13.526-0.964-13.526-14.448v-10.873l-10.054-0.022c-14.146-0.032-14.425-0.341-15.058-16.678l-0.538-13.833-6.164-2.979c-4.243-2.050-7.095-4.835-9.145-8.929-1.638-3.271-4.152-6.829-5.585-7.903-1.946-1.46-2.608-4.102-2.614-10.434-0.004-4.664-0.441-15.016-0.97-23.003l-0.961-14.522h-51.22c-83.977 0-94.297-2.26-94.297-20.646 0-4.861-2.072-6.164-9.802-6.164h-5.092v-617.952l6.33-0.458c6.299-0.456 6.332-0.49 6.788-6.788l0.458-6.33h717.575l0.458 6.33c0.456 6.299 0.49 6.332 6.788 6.788l6.33 0.458v617.952h-5.092c-7.73 0-9.802 1.303-9.802 6.164 0 18.385-10.32 20.646-94.297 20.646h-51.22l-0.961 14.522c-0.529 7.987-0.966 18.339-0.97 23.003-0.006 6.332-0.668 8.974-2.614 10.434-1.434 1.074-3.947 4.632-5.585 7.903-2.050 4.094-4.902 6.879-9.145 8.929l-6.164 2.979-0.538 13.833c-0.633 16.337-0.912 16.647-15.058 16.678l-10.054 0.022v10.873c0 13.483-0.903 14.448-13.526 14.448h-9.95l-1.296 11.543-1.294 11.543-23.087 2.59v11.56h-223.418v-5.781zM514.773 777.612h16.148v-9.397c0-12.772 1.577-14.546 13.805-15.528l9.903-0.795 0.801-6.131c0.441-3.372 0.97-8.477 1.179-11.344 0.348-4.809 0.782-5.243 5.591-5.591 2.867-0.209 8.062-0.752 11.543-1.208l6.33-0.83v-23.649h-223.418v23.649l6.33 0.83c3.482 0.456 8.676 1 11.543 1.208 4.809 0.348 5.243 0.782 5.591 5.591 0.209 2.867 0.737 7.972 1.179 11.344l0.801 6.131 9.903 0.795c12.221 0.981 13.805 2.759 13.805 15.49v9.359l24.204 0.557c13.312 0.307 34.196 0.324 46.41 0.037 12.214-0.285 29.473-0.519 38.353-0.519zM754.883 594.077c1.214-11.614 3.063-13.459 14.306-14.271l8.981-0.65v-423.927l-8.078-1.676c-9.75-2.026-11.387-3.796-13.56-14.68l-1.683-8.423-8.075-1.123c-9.845-1.368-14.146-5.571-15.596-15.241l-1.009-6.73h-523.61l-1.009 6.73c-1.467 9.773-5.781 14.010-15.405 15.127-8.531 0.989-9.704 2.149-11.338 11.217-1.205 6.671-6.537 11.286-14.515 12.562l-5.734 0.916v425.247l8.981 0.65c11.244 0.812 13.092 2.657 14.306 14.271l0.968 9.268h571.102l0.968-9.268zM427.474 527.262c-13.029-1.787-16.797-4.182-17.961-11.411-2.122-13.202-1.201-12.299-12.565-12.299-13.526 0-14.973-1.45-14.973-15.001v-10.32h-10.244c-15.421 0-14.34 5.295-14.288-69.863 0.052-77.891-0.715-74.478 17.25-76.819l6.87-0.896 0.94-9.248c1.132-11.13 4.208-14.451 13.414-14.485 10.091-0.037 9.611 2.296 10.145-49.446 0.374-36.218 0.938-47.651 2.424-49.135 2.83-2.828 116.922-2.828 119.752 0 1.486 1.484 2.050 12.917 2.424 49.135 0.534 51.742 0.054 49.409 10.145 49.446 9.207 0.034 12.282 3.355 13.414 14.485l0.94 9.248 6.87 0.896c17.965 2.34 17.198-1.072 17.25 76.819 0.052 75.158 1.134 69.863-14.288 69.863h-10.244v10.32c0 13.537-1.454 15.001-14.909 15.001h-10.229l-0.998 7.075c-1.335 9.467-4.007 13.293-10.713 15.334-7.235 2.201-76.593 3.199-90.429 1.301zM480.279 416.419v-12.66h-23.831v25.321h23.831v-12.66z" />
<glyph unicode="&#xe94f;" glyph-name="personal2" horiz-adv-x="1180" d="M396.8 793.039v-6.963l-22.399-0.545c-29.211-0.713-29.647-0.961-31.214-17.744l-0.819-8.782-9.785-0.983c-14.004-1.405-15.573-3.080-16.669-17.781l-0.893-11.944-5.378-1.114c-11.219-2.322-18.088-9.679-18.088-19.372 0-1.393-0.784-3.316-1.745-4.276-1.245-1.245-1.903-11.307-2.298-35.146l-0.555-33.403-3.834-2.263c-2.109-1.247-4.979-3.959-6.377-6.027-1.399-2.071-4.561-4.723-7.023-5.896-17.338-8.26-7.916-69.153 11.504-74.346l6.062-1.622 0.045-22.815c0.051-25.672 2.822-50.336 6.242-55.556 2.345-3.578 4.033-4.262 15.045-6.089l6.4-1.061 0.713-11.819c0.889-14.78 2.025-15.847 16.863-15.847 12.833 0 12.642-0.883-0.594-2.75-12.145-1.714-14.273-3.938-15.596-16.296l-0.969-9.050-11.442-0.662c-13.527-0.784-15.276-2.281-15.305-13.113-0.035-12.876-0.213-13.079-12.497-14.117-13.711-1.157-14.561-2.052-15.542-16.364l-0.793-11.559h-9.595c-14.023 0-15.522-1.618-16.574-17.891l-0.836-12.913-6.287-1.681c-7.885-2.109-12.497-6.652-14.852-14.631-1.010-3.42-2.658-7.064-3.664-8.098-1.266-1.298-1.831-6.676-1.831-17.422v-15.542h-14.221v-170.666h90.681l0.84 8.178c3.107 30.22 3.637 39.991 3.699 68.174l0.070 31.551 7.916 7.916c5.964 5.966 8.929 7.913 12.038 7.913 5.72 0 7.068 3.338 7.068 17.502v11.999l7.086 0.94c13.5 1.79 19.806 14.053 19.894 38.693l0.043 11.532 12.225 0.762c15.010 0.938 14.922 0.848 15.858 15.86l0.762 12.225 18.645 0.033c28.396 0.051 33.577 2.036 33.577 12.861 0 2.882 0.399 7.238 0.889 9.683l0.889 4.444h167.15l0.991-5.284c2.128-11.336 6.887-16.093 18.235-18.221 2.914-0.547 5.65-1.563 6.078-2.257 0.43-0.692 6.42-1.26 13.314-1.26h12.532l0.655-11.299c0.797-13.775 2.171-15.725 11.086-15.725 14.78 0 15.202-0.326 15.972-12.329 0.879-13.691 2.109-14.911 15.933-15.798l10.764-0.69v-7.184c0-33.085 4.27-42.858 19.558-44.763l8.174-1.018 0.713-25.36c0.805-28.744 1.073-29.389 12.182-29.389 3.273 0 7.95-0.401 10.396-0.889l4.444-0.889v-67.912h108.341l-0.481 42.375c-0.594 52.197 0.172 50.051-18.614 52.187l-8.18 0.93-0.014 33.677c-0.023 48.286 0.625 46.449-16.916 48.079l-10.090 0.938-0.084 17.928c-0.156 32.774-1.036 34.71-16.118 35.471l-10.422 0.526-0.932 12.114c-1.171 15.241-0.014 14.072-15.079 15.249l-12.831 1.004v12.028c0 11.145-0.236 12.124-3.201 13.314-2.015 0.811 13.171 1.321 41.058 1.378l44.259 0.090 0.881-5.335c0.485-2.933 0.889-8.016 0.897-11.297 0.023-8.311 3.363-10.392 16.689-10.392h10.349v-11.276c0-14.782 0.954-15.745 15.579-15.745h11.11l0.664-23.112c0.868-30.202 1.3-30.933 18.225-30.933h8.466l0.027-30.222c0.047-58.407 4.112-73.38 20.63-75.991 3.111-0.492 6.111-1.595 6.668-2.451 0.674-1.036 12.241-1.702 34.488-1.987l33.477-0.428v163.701h-14.221l-0.035 19.556c-0.055 31.633-0.938 33.485-16.368 34.263l-10.621 0.537v11.223c0 15.135-1.702 16.91-16.21 16.91h-10.521l-0.502 12.141c-0.6 14.559-0.885 14.83-15.579 14.86l-10.811 0.020-0.836 12.904c-0.461 7.098-0.463 19.495-0.008 27.548l0.829 14.645 10.107 0.938c17.308 1.606 15.796-7.080 15.796 90.849 0 102.109 1.014 96.324-17.22 98.402l-8.69 0.991-0.932 12.143c-1.178 15.299-0.063 14.166-15.104 15.358l-12.81 1.014v11.973c0 14.162-0.682 14.748-17.158 14.748h-9.863v11.297c0 15.276-0.676 15.725-23.687 15.725-16.048 0-17.433 0.213-18.258 2.812-0.492 1.546-3.215 4.725-6.054 7.066-2.839 2.339-5.841 6.339-6.67 8.884-2.576 7.907-4.903 8.335-43.162 7.922-41.038-0.442-37.175 2.165-37.425-25.26-0.168-18.491-1.935-44.032-2.482-35.881-0.274 4.067-3.953 5.601-16.218 6.756l-9.599 0.905v10.553c0 14.373-1.86 16.243-16.153 16.243h-10.463l-0.801 11.67c-0.995 14.52-1.913 15.354-16.945 15.354h-11.106v14.221h-244.621v-6.961zM752.355 677.575c31.076-0.973 27.023 0.596 27.023-10.459 0-15.219 0.606-15.925 14.631-17.095l11.991-0.999 0.92-10.869c1.139-13.468 1.948-14.273 15.522-15.419l10.979-0.928v-81.742l-9.222-0.987c-13.214-1.415-15.413-3.629-16.126-16.239l-0.571-10.127-38.597 0.209c-21.225 0.115-34.941 0.602-30.476 1.079 12.669 1.358 11.739-4.475 12.227 76.648 0.537 89.442 1.436 85.586-19.988 85.61l-6.756 0.008 0.295 20.978 0.293 20.978 0.774-19.911 0.772-19.911 26.311-0.825zM521.245 706.050c6.257-0.637 24.017-1.2 39.467-1.249l28.088-0.090v-11.805c0-14.801 0.41-15.217 15.004-15.217h11.59l0.87-18.133c1.376-28.602 3.172-32.092 17.842-34.677l8.739-1.54v-62.296l-5.693-2.277c-6.216-2.488-12.311-8.782-13.642-14.090-0.467-1.853-2.386-4.379-4.268-5.612-3.16-2.071-3.42-3.144-3.42-14.115v-11.872l-11.588-0.672c-14.395-0.834-15.434-1.931-15.434-16.323v-10.394l-10.312-0.070c-37.886-0.254-42.643-2.068-43.733-16.689l-0.711-9.552-40.198-0.788-7.989 7.678c-5.679 5.456-7.991 8.743-7.991 11.364 0 5.435-3.543 6.584-23.423 7.592-9.802 0.498-17.822 1.446-17.822 2.109 0 1.487-10.117 11.155-11.674 11.155-0.618 0-1.126 2.431-1.126 5.405 0 6.726-2.005 8.817-8.46 8.821-3.963 0.004-5.632 0.874-7.758 4.047-1.491 2.224-4.448 5.214-6.576 6.644-3.803 2.556-3.879 2.898-4.524 20.767-0.696 19.28-1.798 22.583-7.543 22.583-7.086 0-19.182 14.703-19.182 23.314v7.61l5.837 0.934c8.282 1.325 13.429 4.358 15.213 8.964 2.753 7.102 5.972 26.106 5.972 35.236v8.909l7.293 0.967c9.040 1.2 14.84 6.394 16.159 14.475 1.755 10.744 2.456 11.45 12.186 12.333 12.003 1.087 15.505 4.534 16.574 16.318l0.778 8.585 25.059 0.553c15.915 0.352 26.1 1.174 27.906 2.251 1.565 0.932 3.805 1.317 4.979 0.852s7.252-1.368 13.511-2.007zM727.763 510.933c-1.999-1.491-2.449-5.093-2.804-22.399l-0.422-20.623-0.313 22.401c-0.309 22.198-0.285 22.399 2.804 22.399 2.814 0 2.886-0.172 0.735-1.778zM728.179 377.565c1.712-1.079 1.501-1.348-1.067-1.366-3.052-0.020-3.201 0.502-3.201 11.256 0 14.811-0.932 15.745-15.745 15.745h-11.276l-0.008 7.467c-0.018 16.501-1.421 18.221-16.347 20.034-2.347 0.285-0.291 0.614 4.571 0.731 10.877 0.262 11.784 1.53 11.784 16.474v10.76h10.666c8.278 0 11.225 0.559 13.156 2.497 2.37 2.378 2.556 0.483 3.91-39.879 1.178-35.037 1.792-42.609 3.557-43.719z" />
<glyph unicode="&#xe950;" glyph-name="personal1" horiz-adv-x="905" d="M279.813 857.572c0-3.535-0.651-6.83-1.447-7.322s-1.447-5.652-1.447-11.467v-10.571l-9.563-0.767c-14.018-1.125-13.466 0.331-14.557-38.405l-0.948-33.591-47.169-0.047c-69.060-0.069-69.838-0.235-70.784-15.098l-0.595-9.348-23.552-0.836-1.31-11.217-1.308-11.217h-11.132v-649.694l6.151-0.445c6.12-0.443 6.153-0.476 6.596-6.596l0.445-6.151h565.747v5.534c0 5.192 0.337 5.618 5.428 6.875l5.428 1.341 0.42 11.047 0.42 11.049 4.465 0.892c2.455 0.492 6.649 0.894 9.317 0.894 9.797 0 9.922 0.756 10.463 63.052l0.479 55.222 33.152 0.735c38.411 0.85 36.994 0.326 38.362 14.204l0.981 9.96 22.072 0.839 1.341 5.428c1.257 5.091 1.683 5.428 6.875 5.428h5.534v613.51l-6.151 0.445c-6.12 0.443-6.153 0.476-6.596 6.596l-0.445 6.151h-526.669v-6.428zM714.315 796.040c1.424-8.337 4.715-11.461 14.323-13.594l7.81-1.735 1.062-8.65c1.275-10.394 4.054-13.24 14.256-14.593l7.119-0.944v-421.736l-6.49-6.772c-4.313-4.501-7.693-6.772-10.079-6.772-4.841 0-6.589-3.814-6.589-14.378v-8.78h-24.605l-0.172 187.070c-0.185 202.605 0.060 195.067-6.415 197.201-2.415 0.796-6.828 3.89-9.806 6.875s-5.956 5.428-6.62 5.428c-0.662 0-1.541 6.35-1.952 14.112-1.105 20.882-2.388 22.049-24.296 22.065-10.629 0.007-10.971 0.119-13.524 4.443-1.442 2.439-4.186 5.149-6.102 6.021-2.044 0.932-3.49 2.835-3.503 4.61-0.071 9.58 1.757 9.466-151.588 9.504l-137.86 0.034v24.268l9.256 0.588c12.42 0.791 13.902 2.251 13.902 13.681v9.238l340.771-0.736 1.1-6.448zM252.956 640.023c1.12-23.718 1.471-25.725 4.773-27.34 1.4-0.684 71.405-1.433 155.568-1.663l153.023-0.418 0.396-200.764c0.217-110.42 0.935-201.853 1.594-203.184 1.746-3.532 2.985-3.77 25.408-4.908l20.433-1.038v-71.96h-8.78c-10.687 0-14.378-1.733-14.378-6.752 0-2.609-2.073-5.684-6.799-10.084l-6.799-6.332-374.936 0.735-1.1 6.448c-1.42 8.315-4.713 11.461-14.213 13.571l-7.698 1.71-1.706 8.536c-1.746 8.751-4.291 11.968-10.461 13.22-1.791 0.364-4.885 0.999-6.875 1.411l-3.618 0.751v470.224l6.385 6.567c3.51 3.613 7.698 6.569 9.305 6.569 5.511 0 7.468 3.821 7.468 14.577v10.028h72.071l0.939-19.901zM258.827 561.694c-4.257-0.919-4.364-1.165-5.482-12.505-2.104-21.327-0.646-103.364 1.863-104.951 4.552-2.877 260.463-1.786 261.654 1.116 1.464 3.562 1.304 114.2-0.165 115.669-1.411 1.409-251.441 2.061-257.871 0.671zM262.778 344.799c-9.793-1.212-9.741-0.834-9.741-70.531 0-67.506 0.185-69.648 6.173-71.324 7.483-2.093 254.688-1.348 256.811 0.774 2.097 2.097 2.855 129.257 0.814 136.518-0.769 2.739-2.33 4.049-5.608 4.704-4.867 0.973-240.526 0.839-248.448-0.141z" />
</font>
</defs>
</svg>
